<svg viewBox="0 0 62 62" fill="none" xmlns="http://www.w3.org/2000/svg">
<g id="noun_setting_2209596" opacity="0.45">
<path id="Shape" fill-rule="evenodd" clip-rule="evenodd" d="M32.3563 0L32.55 3.69279C33.325 3.69279 34.1 3.88715 34.875 3.88715L36.0375 0.388715C36.8125 0.583072 37.5875 0.777429 38.5563 0.971787L38.1688 4.47022C38.9438 4.85893 39.525 5.05329 40.3 5.24765L42.0438 1.94357C42.8188 2.33229 43.5938 2.721 44.3688 3.10972L43.2062 6.60815C43.9813 6.99687 44.7563 7.38558 45.3375 7.77429L47.6625 4.85893C48.4375 5.44201 49.2125 5.83072 49.7938 6.41379L48.05 9.52351C48.6312 10.1066 49.2125 10.4953 49.7938 11.0784L52.7 8.74608C53.2812 9.52351 53.8625 10.1066 54.4437 10.6897L51.925 13.4107C52.5062 13.9937 52.8937 14.7712 53.475 15.3542L56.575 13.605C57.1562 14.3824 57.5438 15.1599 57.9313 15.9373L55.025 18.0752C55.4125 18.8527 55.8 19.4357 55.9938 20.2132L59.675 19.2414C59.8687 20.0188 60.2563 20.7962 60.45 21.768L57.1562 23.3229C57.35 23.906 57.5438 24.6834 57.7375 25.4608L61.4188 25.2665C61.6125 26.0439 61.6125 27.0157 61.8063 27.7931L58.125 28.7649C58.3187 29.5423 58.3187 30.3197 58.3187 31.0972L62 31.4859C62 32.4577 61.8063 33.2351 61.8063 34.2069H58.125C58.125 34.9843 57.9312 35.7618 57.7375 36.5392L61.225 37.7053C61.0312 38.6771 60.8375 39.4545 60.6437 40.232L56.9625 39.6489C56.7688 40.4263 56.3812 41.2038 56.1875 41.7868L59.2875 43.7304C58.9 44.5078 58.5125 45.2853 58.125 46.0627L54.6375 44.7022C54.25 45.4796 53.8625 46.0627 53.475 46.6458L56.1875 49.1724C55.6063 49.9498 55.025 50.5329 54.4437 51.3103L51.3438 49.1724C50.9562 49.7555 50.375 50.3386 49.9875 50.9216L52.1188 53.837C51.3438 54.4201 50.7625 55.0031 49.9875 55.5862L47.4688 53.0596C46.8875 53.4483 46.1125 53.837 45.5312 54.2257L47.0812 57.5298C46.3062 58.1129 45.5312 58.5016 44.7562 58.8903L42.625 55.7806C42.0438 56.1693 41.2687 56.3636 40.6875 56.7523L41.4625 60.2508C40.6875 60.6395 39.7188 60.8339 38.9437 61.0282L37.5875 57.7241C36.8125 57.9185 36.0375 57.9185 35.2625 58.1129L35.4562 61.8056C34.4875 62 33.7125 62 32.7438 62L32.1625 58.5016H29.8375L29.2563 62C28.2875 62 27.3188 62 26.5438 61.8056V58.1129C25.9625 57.9185 25.1875 57.9185 24.4125 57.7241L23.0562 61.0282C22.0875 60.8339 21.3125 60.6395 20.5375 60.2508L21.3125 56.7523C20.5375 56.3636 19.9562 56.1693 19.1812 55.7806L17.2437 58.8903C16.4688 58.5016 15.6937 58.1129 14.9187 57.5298L16.4688 54.2257C15.6938 53.837 15.1125 53.4483 14.5312 53.0596L12.0125 55.5862C11.2375 55.0031 10.6562 54.4201 9.88125 53.837L12.0125 50.9216C11.4312 50.3386 11.0437 49.7555 10.4625 49.1724L7.3625 51.3103C6.78125 50.5329 6.39375 49.9498 5.8125 49.1724L8.525 46.6458C8.1375 46.0627 7.75 45.4796 7.3625 44.7022L3.875 46.0627C3.4875 45.2853 3.1 44.5078 2.7125 43.7304L5.8125 41.7868C5.61875 41.2038 5.23125 40.4263 5.0375 39.6489L1.35625 40.232C1.1625 39.4545 0.96875 38.6771 0.775 37.7053L4.2625 36.5392C4.06875 35.7618 3.875 34.9843 3.875 34.2069H0.19375C0 33.2351 0 32.4577 0 31.4859L3.68125 31.0972C3.68125 30.3197 3.68125 29.5423 3.68125 28.7649L0.19375 27.7931C0.19375 27.0157 0.3875 26.0439 0.58125 25.2665L4.2625 25.4608C4.2625 24.6834 4.45625 23.906 4.84375 23.3229L1.35625 21.768C1.74375 20.7962 1.9375 20.0188 2.325 19.2414L5.8125 20.2132C6.2 19.4357 6.5875 18.8527 6.78125 18.0752L3.875 15.9373C4.2625 15.1599 4.84375 14.3824 5.23125 13.605L8.525 15.3542C9.10625 14.7712 9.49375 13.9937 10.075 13.4107L7.55625 10.6897C8.1375 10.1066 8.71875 9.52351 9.3 8.74608L12.2063 11.0784C12.7875 10.4953 13.3687 10.1066 13.95 9.52351L12.2063 6.41379C12.7875 5.83072 13.5625 5.44201 14.3375 4.85893L16.6625 7.77429C17.2437 7.38558 18.0188 6.99687 18.6 6.60815L17.4375 3.10972C18.2125 2.721 18.9875 2.33229 19.9562 1.94357L21.7 5.24765C22.2812 5.05329 23.0562 4.85893 23.8312 4.47022L23.4438 0.971787C24.2188 0.777429 25.1875 0.583072 25.9625 0.388715L26.9312 3.88715C27.7062 3.88715 28.4813 3.69279 29.45 3.69279L29.6437 0H32.3563ZM8.1375 28.5705C8.525 22.5455 12.4 15.7429 17.4375 12.4389C18.0187 12.0502 18.9875 12.2445 19.1812 12.8276C20.925 15.9373 22.6687 19.047 24.6062 22.1567C24.8 22.5455 24.6063 22.9342 24.4125 23.3229C22.475 25.0721 21.5062 26.627 20.925 29.1536C20.925 29.5423 20.5375 29.931 19.9562 29.931C16.4688 29.931 12.9812 29.931 9.49375 29.931C8.71875 29.931 7.94375 29.348 8.1375 28.5705ZM17.4375 49.7555C12.4 46.2571 8.525 39.4545 8.1375 33.4295C7.94375 32.8464 8.71875 32.069 9.49375 32.069C12.9812 32.069 16.4688 32.2633 19.9562 32.069C20.5375 32.069 20.925 32.4577 20.925 32.8464C21.5062 35.373 22.475 37.1223 24.4125 38.8715C24.6063 39.0658 24.8 39.4545 24.6062 40.0376C22.6687 42.953 20.925 46.0627 19.1812 49.1724C18.9875 49.9498 18.0187 50.1442 17.4375 49.7555ZM44.5625 12.4389C49.6 15.7429 53.475 22.5455 53.8625 28.5705C53.8625 29.348 53.2812 29.931 52.5062 29.931C49.0187 29.931 45.5312 29.931 41.85 29.931C41.2687 29.931 41.075 29.5423 41.075 29.1536C40.4938 26.627 39.525 25.0721 37.5875 23.3229C37.3937 22.9342 37.0062 22.5455 37.3937 22.1567C39.1375 19.047 40.8812 15.9373 42.625 12.8276C43.0125 12.2445 43.9813 12.0502 44.5625 12.4389ZM21.7 9.91223C27.125 7.38558 34.875 7.38558 40.3 9.91223C40.8812 10.3009 41.2687 11.0784 40.8812 11.8558C38.9437 14.7712 37.2 17.8809 35.4562 20.9906C35.2625 21.5737 34.6812 21.5737 34.2937 21.3793C31.9687 20.6019 30.0312 20.6019 27.7062 21.3793C27.125 21.5737 26.7375 21.5737 26.5437 20.9906C24.8 17.8809 22.8625 14.7712 21.1187 11.8558C20.7312 11.0784 20.925 10.3009 21.7 9.91223ZM40.3 52.0878C34.875 54.8088 27.125 54.8088 21.7 52.0878C20.925 51.8934 20.7312 50.9216 21.1187 50.3386C22.8625 47.2288 24.8 44.1191 26.5437 41.0094C26.7375 40.6207 27.125 40.6207 27.7062 40.6207C30.0312 41.3981 31.9687 41.3981 34.2937 40.6207C34.6812 40.6207 35.2625 40.6207 35.4562 41.0094C37.2 44.1191 38.9437 47.2288 40.8812 50.3386C41.2687 50.9216 40.8812 51.8934 40.3 52.0878ZM53.8625 33.4295C53.475 39.4545 49.6 46.2571 44.5625 49.7555C43.9813 50.1442 43.0125 49.9498 42.625 49.1724C40.8812 46.0627 39.1375 42.953 37.3937 40.0376C37.0062 39.4545 37.3937 39.0658 37.5875 38.8715C39.525 37.1223 40.4938 35.373 41.075 32.8464C41.075 32.4577 41.2687 32.069 41.85 32.069C45.5312 32.2633 49.0187 32.069 52.5062 32.069C53.2812 32.069 53.8625 32.8464 53.8625 33.4295ZM31 25.2665C38.5563 25.2665 38.5563 36.7335 31 36.7335C23.4438 36.7335 23.4438 25.2665 31 25.2665Z" fill="white"/>
</g>
</svg>
