<svg viewBox="0 0 30 30" fill="none" xmlns="http://www.w3.org/2000/svg">
<g id="brands-and-logotypes">
<path id="Path" d="M18 15C18 16.6569 16.6569 18 15 18C13.3431 18 12 16.6569 12 15C12 13.3431 13.3431 12 15 12C16.6569 12 18 13.3431 18 15Z" fill="#DD0E12"/>
<path id="Shape" fill-rule="evenodd" clip-rule="evenodd" d="M21.6563 9.96422C21.5194 9.59347 21.3012 9.2579 21.0176 8.98245C20.7421 8.69883 20.4068 8.48056 20.0358 8.34374C19.7349 8.22689 19.283 8.08781 18.4505 8.04992C17.5499 8.00885 17.2799 8 15.0001 8C12.7201 8 12.4501 8.00862 11.5497 8.04969C10.7173 8.08781 10.2651 8.22689 9.96444 8.34374C9.59347 8.48056 9.2579 8.69883 8.98268 8.98245C8.69906 9.2579 8.48079 9.59325 8.34374 9.96422C8.22689 10.2651 8.08781 10.7173 8.04992 11.5497C8.00885 12.4501 8 12.7201 8 15.0001C8 17.2799 8.00885 17.5499 8.04992 18.4505C8.08781 19.283 8.22689 19.7349 8.34374 20.0358C8.48079 20.4068 8.69883 20.7421 8.98245 21.0176C9.2579 21.3012 9.59325 21.5194 9.96422 21.6563C10.2651 21.7733 10.7173 21.9124 11.5497 21.9503C12.4501 21.9914 12.7198 22 14.9999 22C17.2802 22 17.5502 21.9914 18.4503 21.9503C19.2827 21.9124 19.7349 21.7733 20.0358 21.6563C20.7804 21.369 21.369 20.7804 21.6563 20.0358C21.7731 19.7349 21.9122 19.283 21.9503 18.4505C21.9914 17.5499 22 17.2799 22 15.0001C22 12.7201 21.9914 12.4501 21.9503 11.5497C21.9124 10.7173 21.7733 10.2651 21.6563 9.96422ZM15.0001 19.3844C12.5785 19.3844 10.6154 17.4215 10.6154 14.9999C10.6154 12.5783 12.5785 10.6154 15.0001 10.6154C17.4215 10.6154 19.3846 12.5783 19.3846 14.9999C19.3846 17.4215 17.4215 19.3844 15.0001 19.3844ZM18.5333 10.4421C18.5333 11.0079 18.9921 11.4667 19.5579 11.4667C20.1238 11.4667 20.5824 11.0079 20.5826 10.4421C20.5826 9.87618 20.1238 9.4174 19.5579 9.4174C18.9921 9.4174 18.5333 9.87618 18.5333 10.4421Z" fill="#DD0E12"/>
<path id="Shape_2" fill-rule="evenodd" clip-rule="evenodd" d="M0 15C0 6.717 6.717 0 15 0C23.283 0 30 6.717 30 15C30 23.283 23.283 30 15 30C6.717 30 0 23.283 0 15ZM23.161 20.6419C23.3739 20.094 23.5197 19.468 23.5613 18.5511C23.6034 17.6326 23.6133 17.3392 23.6133 15C23.6133 12.6608 23.6034 12.3674 23.5616 11.4489C23.5197 10.532 23.3741 9.90601 23.161 9.35806C22.9449 8.78334 22.6057 8.26286 22.1677 7.83257C21.7374 7.39426 21.2167 7.05505 20.6419 6.83876C20.094 6.62613 19.468 6.48056 18.5511 6.4389C17.6326 6.39679 17.3392 6.38672 15 6.38672C12.6608 6.38672 12.3674 6.39679 11.4489 6.43867C10.532 6.48056 9.90601 6.62613 9.35806 6.83899C8.78334 7.05528 8.26263 7.39426 7.83257 7.83257C7.39426 8.26263 7.05505 8.78334 6.83876 9.35806C6.6259 9.90601 6.48033 10.532 6.43867 11.4489C6.39656 12.3674 6.38672 12.6608 6.38672 15C6.38672 17.3392 6.39656 17.6326 6.4389 18.5513C6.48056 19.468 6.62636 20.0942 6.83922 20.6419C7.05551 21.2167 7.39449 21.7374 7.83257 22.1674C8.26286 22.6057 8.78334 22.9447 9.35829 23.161C9.90601 23.3739 10.5322 23.5194 11.4489 23.5613C12.3676 23.6032 12.6608 23.6133 15.0002 23.6133C17.3394 23.6133 17.6328 23.6032 18.5513 23.5613C19.468 23.5194 20.0942 23.3739 20.6419 23.161C21.7989 22.7135 22.7135 21.7989 23.161 20.6419Z" fill="#DD0E12"/>
</g>
</svg>
