<svg xmlns="http://www.w3.org/2000/svg" xmlns:xlink="http://www.w3.org/1999/xlink" width="512" height="512" viewBox="0 0 512 512">
  <defs>
    <clipPath id="clip-Linkedin_icon">
      <rect width="512" height="512"/>
    </clipPath>
  </defs>
  <g id="Linkedin_icon" clip-path="url(#clip-Linkedin_icon)">
    <path id="Exclusion_7" data-name="Exclusion 7" d="M4740-10793.5a257.378,257.378,0,0,1-51.492-5.19,254.238,254.238,0,0,1-47.96-14.888,255.566,255.566,0,0,1-43.4-23.557,257.336,257.336,0,0,1-37.813-31.2,257.351,257.351,0,0,1-31.2-37.812,255.551,255.551,0,0,1-23.557-43.4,254.245,254.245,0,0,1-14.887-47.96A257.393,257.393,0,0,1,4484.5-11049a257.383,257.383,0,0,1,5.191-51.491,254.231,254.231,0,0,1,14.887-47.959,255.551,255.551,0,0,1,23.557-43.4,257.419,257.419,0,0,1,31.2-37.813,257.3,257.3,0,0,1,37.813-31.2,255.555,255.555,0,0,1,43.4-23.558,254.26,254.26,0,0,1,47.96-14.888,257.374,257.374,0,0,1,51.492-5.19,257.374,257.374,0,0,1,51.492,5.19,254.271,254.271,0,0,1,47.96,14.888,255.555,255.555,0,0,1,43.4,23.558,257.326,257.326,0,0,1,37.813,31.2,257.388,257.388,0,0,1,31.2,37.813,255.554,255.554,0,0,1,23.557,43.4,254.177,254.177,0,0,1,14.887,47.959A257.4,257.4,0,0,1,4995.5-11049a257.4,257.4,0,0,1-5.191,51.492,254.2,254.2,0,0,1-14.887,47.96,255.554,255.554,0,0,1-23.557,43.4,257.32,257.32,0,0,1-31.2,37.813,257.358,257.358,0,0,1-37.813,31.2,255.566,255.566,0,0,1-43.4,23.557,254.26,254.26,0,0,1-47.96,14.888A257.371,257.371,0,0,1,4740-10793.5Zm65.647-263.917a41.1,41.1,0,0,1,11.068,1.393,27.624,27.624,0,0,1,8.359,3.88,25.853,25.853,0,0,1,6.028,5.919,33.533,33.533,0,0,1,4.079,7.512,64.522,64.522,0,0,1,3.832,18.008c.555,6.2.6,12.527.6,19v102.432h65.2v-.011h.079v-115.579c0-15.645-.96-28.563-2.935-39.494a110.364,110.364,0,0,0-4.4-17.024,73.734,73.734,0,0,0-7.012-14.732,57.252,57.252,0,0,0-10.11-12.082,57.12,57.12,0,0,0-13.7-9.073,74.826,74.826,0,0,0-17.775-5.707,117.363,117.363,0,0,0-22.342-1.981,79.277,79.277,0,0,0-21.838,2.982,70.692,70.692,0,0,0-17.716,7.8c-9.6,5.938-17.506,14.172-22.251,23.184h-.919v-28.691h-62.673v210.4h65.258v-104.183a127.085,127.085,0,0,1,1.343-20,52.652,52.652,0,0,1,5.5-17.262,32.4,32.4,0,0,1,5-6.852,29.174,29.174,0,0,1,6.871-5.265,34.529,34.529,0,0,1,9.015-3.38A51.374,51.374,0,0,1,4805.646-11057.418Zm-210.7-52.247v210.393h65.337v-210.393Zm32.643-104.747a37.6,37.6,0,0,0-14.727,2.975,37.773,37.773,0,0,0-12.03,8.112,37.738,37.738,0,0,0-8.112,12.029,37.582,37.582,0,0,0-2.975,14.727,37.975,37.975,0,0,0,2.975,14.783,38.394,38.394,0,0,0,8.112,12.15,37.9,37.9,0,0,0,12.03,8.234,37.034,37.034,0,0,0,14.727,3.03,37.031,37.031,0,0,0,14.726-3.03,37.9,37.9,0,0,0,12.03-8.234,38.382,38.382,0,0,0,8.112-12.15,37.967,37.967,0,0,0,2.976-14.783,37.619,37.619,0,0,0-2.983-14.727,37.765,37.765,0,0,0-8.115-12.029,37.771,37.771,0,0,0-12.027-8.112A37.559,37.559,0,0,0,4627.592-11214.412Z" transform="translate(-4484 11305)" fill="#dd0e12" stroke="#707070" stroke-width="1"/>
  </g>
</svg>
