<svg viewBox="0 0 34 68" fill="none" xmlns="http://www.w3.org/2000/svg">
<g id="Group 22" opacity="0.45">
<g id="noun_Microphone_535750">
<g id="Group">
<path id="Path" d="M9.15385 19.04C14.2015 19.04 18.3077 14.7696 18.3077 9.52C18.3077 4.2704 14.2015 0 9.15385 0C4.10615 0 0 4.2704 0 9.52C0 14.7696 4.10615 19.04 9.15385 19.04Z" fill="white"/>
<path id="Path_2" d="M15.139 23.7809C14.7925 23.5253 14.3478 23.4627 13.9477 23.6096C10.8092 24.7656 7.49685 24.7656 4.35839 23.6096C3.95823 23.4627 3.51362 23.5253 3.16708 23.7809C2.82185 24.0353 2.61523 24.4501 2.61523 24.8921V43.52H15.6922V24.8921C15.6922 24.4501 15.4855 24.0353 15.139 23.7809Z" fill="white"/>
<path id="Path_3" d="M32.6922 48.96C27.6458 48.96 23.5383 53.2318 23.5383 58.48C23.5383 62.2295 20.6052 65.28 16.9998 65.28C13.3945 65.28 10.4614 62.2295 10.4614 58.48V54.2613C13.4416 53.6302 15.6922 50.883 15.6922 47.6V46.24H2.61523V47.6C2.61523 50.883 4.86577 53.6316 7.846 54.2613V58.48C7.846 63.7282 11.9522 68 16.9998 68C22.0462 68 26.1537 63.7282 26.1537 58.48C26.1537 54.7305 29.0868 51.68 32.6922 51.68C33.4153 51.68 33.9998 51.0721 33.9998 50.32C33.9998 49.5679 33.4153 48.96 32.6922 48.96Z" fill="white"/>
</g>
</g>
</g>
</svg>
