<svg viewBox="0 0 747 608" fill="none" xmlns="http://www.w3.org/2000/svg">
<g id="noun_rangoli_1570659 copy 3" opacity="0.202859">
<g id="Group">
<path id="Shape" fill-rule="evenodd" clip-rule="evenodd" d="M626.146 149.386C663.181 163.738 700.859 189.967 738.763 227.862L746.212 235.299L738.989 242.97C736.494 245.62 693.045 291.092 632.239 316.234C607.199 403.25 539.231 472.266 452.785 498.72C427.284 556.563 384.46 597.499 381.801 600.001L374.126 607.221L366.678 599.776C332.259 565.372 307.54 531.247 292.521 497.634C207.987 470.52 141.645 402.581 116.717 317.138C54.729 292.212 10.2109 245.655 7.69036 242.979L0.458984 235.308L7.91634 227.854C46.6372 189.159 85.106 162.678 122.897 148.535C150.684 74.2286 210.542 15.4735 285.551 -10.9025C299.162 -50.1971 326.192 -90.2736 366.678 -130.741L374.126 -138.195L381.801 -130.967C384.721 -128.222 436.14 -79.0664 459.773 -12.0406C536.65 13.8315 598.081 73.5597 626.146 149.386ZM562.898 136.511C574.91 136.711 587.026 138.257 599.211 141.098C573.224 83.5679 525.811 37.7402 467.161 13.8402C469.646 25.2472 471.15 37.0017 471.393 49.0255C510.071 68.347 541.873 98.8931 562.898 136.511ZM471.282 409.445L471.282 409.436C471.231 407.874 471.181 406.316 471.072 404.736C469.707 385.805 464.962 367.718 457.026 350.472C469.064 341.263 479.59 330.195 488.003 317.563C506.594 326.312 526.194 331.273 546.749 332.35C529.635 365.242 503.404 392.356 471.324 410.704C471.309 410.291 471.296 409.878 471.283 409.466L471.282 409.455L471.282 409.445ZM260.241 316.825C241.806 325.747 222.38 330.96 201.99 332.289C218.808 364.529 244.422 391.287 275.694 409.671L275.715 409.389L275.722 409.291L275.749 408.915C275.769 408.633 275.789 408.35 275.809 408.068L275.809 408.057C275.954 405.998 276.098 403.941 276.346 401.895C278.667 382.817 284.325 365.719 291.626 350.446C279.38 341.072 268.732 329.744 260.241 316.825ZM564.48 265.671C551.277 265.671 540.543 254.942 540.543 241.754C540.543 228.557 551.277 217.828 564.48 217.828C577.682 217.828 588.416 228.557 588.416 241.754C588.416 254.942 577.674 265.671 564.48 265.671ZM510.271 231.398H520.101C524.742 211.608 542.212 196.786 563.272 196.222C560.108 183.077 555.519 170.549 549.869 158.63C528.532 160.237 509.584 166.675 493.192 175.354C502.692 192.165 508.671 211.156 510.271 231.398ZM488.551 253.126C487.377 265.393 484.257 277.096 479.52 287.947C460.268 275.454 442.251 257.939 425.58 235.351C432.751 225.343 449.621 204.301 474.696 186.691C482.188 200.175 487.038 215.3 488.551 231.398H461.781V253.118H488.551V253.126ZM380.575 264.612C409.414 284.793 431.421 307.06 446.579 331.203C455.14 324.253 462.658 316.112 468.925 307.016C445.232 291.9 423.338 270.18 403.443 241.772L399.375 235.977L403.043 229.921C404.416 227.645 424.781 194.667 462.172 168.517C455.636 160.741 448.083 153.869 439.73 148.057C425.033 168.291 405.312 187.126 380.584 204.432L374.787 208.489L368.729 204.831C366.634 203.563 334.936 184.024 309 148.04C300.318 154.078 292.46 161.245 285.751 169.394C322.333 195.396 342.254 227.663 343.619 229.921L347.269 235.968L343.21 241.763C323.698 269.616 302.273 291.048 279.119 306.122C285.49 315.583 293.26 324.027 302.099 331.203C328.93 288.703 366.434 265.593 368.72 264.212L374.778 260.554L380.575 264.612ZM373.344 456.732C360.142 456.732 349.407 446.003 349.407 432.806C349.407 419.609 360.142 408.88 373.344 408.88C386.538 408.88 397.272 419.609 397.272 432.806C397.272 446.003 386.529 456.732 373.344 456.732ZM362.471 356.276V329.066H384.191V356.397C400.088 355.042 415.072 350.481 428.466 343.288C415.88 323.054 397.767 304.158 374.152 286.748C363.158 294.619 338.804 314.08 320.36 343.348C333.146 350.203 347.374 354.712 362.471 356.276ZM185.189 287.087C205.432 285.758 222.076 271.327 226.57 252.11H238.373C239.538 268.226 243.466 283.568 249.776 297.66C231.663 306.261 212.559 310.709 192.534 310.874C189.622 303.159 187.11 295.245 185.189 287.087ZM185.389 196.439C205.18 197.838 221.416 211.747 226.248 230.391H238.468C240.155 210.861 245.935 192.495 255.008 176.17C238.781 167.361 220.008 160.654 198.818 158.743C193.142 170.697 188.562 183.268 185.389 196.439ZM182.191 217.828C195.393 217.828 206.127 228.557 206.127 241.754C206.127 254.942 195.393 265.671 182.191 265.671C168.988 265.671 158.254 254.942 158.254 241.754C158.263 228.566 168.997 217.828 182.191 217.828ZM286.489 252.11H260.102C261.153 264.368 264.082 276.097 268.715 286.965C287.376 274.55 304.863 257.323 321.082 235.351C314.05 225.534 297.701 205.092 273.409 187.699C266.386 200.644 261.788 215.074 260.206 230.391H286.489V252.11ZM297.893 64.342C297.875 64.1943 297.867 64.0488 297.858 63.9033C297.849 63.7577 297.84 63.6122 297.823 63.4645C307.479 59.3465 317.562 56.0018 327.957 53.465C329.217 73.9854 343.932 90.883 363.488 95.2095V106.338C346.722 107.668 330.842 112.055 316.319 118.918C307.392 103.176 300.37 84.9319 297.893 64.342ZM397.272 50.6936C397.272 37.4969 386.538 26.7675 373.344 26.7675C360.142 26.7675 349.407 37.4969 349.407 50.6936C349.407 63.8902 360.142 74.6196 373.344 74.6196C386.538 74.6196 397.272 63.8902 397.272 50.6936ZM418.766 52.9871C429.335 55.4458 439.582 58.7036 449.386 62.7782V62.8129C447.952 82.4646 442.303 101.204 432.49 118.953C417.932 112.064 402.017 107.659 385.217 106.321V94.5579C403.886 89.5017 417.749 72.9863 418.766 52.9871ZM363.488 153.86V128.049C351.076 129.222 339.247 132.402 328.287 137.223C345.279 160.081 364.67 175.519 374.152 182.304C393.213 168.239 408.658 153.2 420.548 137.284C409.553 132.428 397.689 129.222 385.217 128.049V153.86H363.488ZM480.763 156.988C472.358 146.528 462.485 137.319 451.411 129.708C461.346 111.794 467.613 92.8812 470.159 73.0558C497.99 88.7458 521.492 110.995 538.544 137.901C516.798 140.829 497.477 147.918 480.763 156.988ZM384.208 6.49907C397.115 9.67877 407.754 18.3318 413.734 29.8777C425.91 32.1192 437.688 35.351 449.03 39.4951C447.987 27.7927 445.719 16.3336 442.416 5.28279C423.816 -0.0688629 404.321 -3.30069 384.208 -4.09128V6.49907ZM362.48 6.49908C349.407 9.71355 338.639 18.549 332.711 30.3035C320.447 32.7013 308.583 36.1156 297.18 40.4681C297.754 29.1914 299.683 17.7758 302.925 6.24713C321.925 0.487167 341.872 -3.05742 362.488 -4.03914V6.49908H362.48ZM297.354 129.674C288.219 113.497 280.953 94.8099 277.485 73.7421C250.089 89.4582 226.917 111.568 210.073 138.179C231.654 141.35 250.802 148.613 267.35 157.787C275.894 146.997 285.977 137.475 297.354 129.674ZM162.313 200.861C150.449 206.656 141.514 217.359 138.142 230.391H128.008C129.077 207.863 133.222 186.144 139.958 165.58C151.753 161.879 163.417 159.603 174.942 158.665C169.336 172.07 165.155 186.214 162.313 200.861ZM162.122 282.543C150.032 276.575 140.958 265.532 137.82 252.11V252.119H127.955C128.616 268.738 130.937 284.932 134.743 300.561C145.695 304.393 157.081 307.347 168.771 309.093C165.981 300.483 163.834 291.596 162.122 282.543ZM297.893 404.701C299.744 389.281 304.177 375.18 310.017 362.444C325.897 370.967 343.645 376.379 362.48 378.013V388.62C343.158 393.381 328.739 410.366 327.878 430.921C317.197 428.314 306.888 424.831 297.006 420.565C297.023 415.239 297.258 409.957 297.893 404.701ZM362.471 477.001C349.772 473.882 339.273 465.446 333.241 454.187C321.386 451.91 309.896 448.679 298.831 444.561C300.691 456.159 303.951 467.896 308.575 479.755C325.871 484.542 343.888 487.53 362.471 488.416V477.001ZM384.2 477.001C396.742 473.925 407.137 465.654 413.212 454.604C424.772 452.51 435.993 449.53 446.814 445.725C444.484 457.853 440.886 469.581 436.471 480.797C419.67 485.176 402.183 487.773 384.2 488.486V477.001ZM384.2 388.612C403.669 393.399 418.201 410.618 418.853 431.39C429.491 428.923 439.774 425.613 449.63 421.512C449.812 416.447 449.769 411.347 449.395 406.222C448.291 391.096 444.623 376.518 438.548 362.505C422.138 371.288 403.721 376.709 384.2 378.108V388.612ZM555.389 310.917C535.511 310.917 516.555 306.695 498.555 298.424C504.925 284.42 508.993 269.173 510.279 253.126H520.431C525.438 272.465 542.708 286.844 563.498 287.295C561.577 295.401 559.065 303.229 556.197 310.891C556.111 310.888 556.028 310.89 555.945 310.893C555.877 310.896 555.81 310.9 555.743 310.904C555.689 310.907 555.634 310.91 555.58 310.912C555.516 310.915 555.453 310.917 555.389 310.917ZM608.85 252.11C605.913 264.672 597.751 275.124 586.808 281.318C585.088 290.71 582.897 299.91 580.038 308.806C591.78 306.903 603.166 303.75 614.117 299.788C617.82 284.402 620.088 268.46 620.732 252.11H608.85ZM608.537 230.391C605.382 218.21 597.36 208.098 586.626 202.086C583.81 187.065 579.577 172.582 573.884 158.865C585.453 159.977 597.16 162.444 608.989 166.336C615.595 186.665 619.636 208.141 620.697 230.391H608.537ZM433.359 -19.4425C415.455 -60.5528 387.572 -93.3317 374.344 -107.519C345.418 -77.3028 324.576 -47.6168 311.843 -18.6345C328.2 -22.5527 345.123 -25.0026 362.48 -25.7585V-68.7627H384.208V-25.8019C401.027 -25.1938 417.454 -23.0218 433.359 -19.4425ZM278.476 15.0478C276.172 26.811 275.121 38.4873 275.295 50.0767C237.634 69.4591 206.605 99.5968 185.928 136.424C173.951 136.468 161.879 137.892 149.719 140.577C175.307 84.289 221.398 39.2084 278.476 15.0478ZM114.318 175.753C87.1225 188.655 59.3443 208.567 31.1402 235.534C44.2992 247.801 73.468 272.596 110.398 290.423C108.121 277.93 106.705 265.142 106.226 252.11H63.1946V230.391H106.279C107.087 211.616 109.816 193.337 114.318 175.753ZM142.323 325.782C153.769 328.892 165.642 331.081 177.81 332.046C198.009 376.345 232.55 412.494 275.781 434.57C276.746 446.628 279.041 458.765 282.648 470.989C217.635 444.856 166.224 391.869 142.323 325.782ZM320.439 505.01C333.232 528.467 351.154 552.349 374.344 576.571C385.677 564.416 407.728 538.562 425.085 505.583C411.778 508.137 398.124 509.692 384.2 510.205V552.271H362.471V510.144C348.147 509.527 334.102 507.799 320.439 505.01ZM462.667 472.318C466.274 460.607 468.96 448.418 470.359 435.873C514.921 413.954 550.452 377.239 571.016 331.872C583.219 330.76 595.118 328.432 606.582 325.174C582.358 392.686 529.479 446.62 462.667 472.318ZM642.469 252.11C642.009 264.777 640.653 277.217 638.48 289.38C674.393 271.649 702.658 247.566 715.557 235.542C688.126 209.323 661.104 189.741 634.629 176.813C638.967 194.076 641.617 211.99 642.426 230.391H684.502V252.11H642.469Z" fill="url(#paint0_linear)"/>
<path id="Shape_2" fill-rule="evenodd" clip-rule="evenodd" d="M603.8 55.6282C592.78 55.6282 582.411 51.3278 574.614 43.5349C566.809 35.742 562.516 25.3775 562.516 14.3528C562.516 3.32805 566.818 -7.03641 574.614 -14.8293C582.411 -22.6222 592.771 -26.9139 603.8 -26.9139H603.809C614.83 -26.9139 625.199 -22.6222 632.995 -14.8293C649.092 1.26906 649.092 27.4452 632.987 43.5349C625.199 51.3278 614.821 55.6282 603.8 55.6282ZM603.809 -5.18592C598.577 -5.18592 593.666 -3.15299 589.972 0.539291C586.287 4.22289 584.245 9.13146 584.245 14.3702C584.245 19.5828 586.278 24.4914 589.972 28.1837C597.36 35.5769 610.241 35.5769 617.629 28.1837C625.251 20.5558 625.26 8.15843 617.637 0.539291C613.944 -3.15299 609.033 -5.18592 603.809 -5.18592Z" fill="#DF0E12"/>
<path id="Shape_3" opacity="0.5" fill-rule="evenodd" clip-rule="evenodd" d="M142.87 433.823C153.891 433.823 164.26 438.123 172.056 445.916C179.852 453.709 184.146 464.073 184.146 475.089C184.146 486.105 179.852 496.461 172.047 504.263C164.242 512.064 153.873 516.356 142.852 516.356C131.831 516.356 121.462 512.056 113.666 504.263C105.87 496.47 101.576 486.114 101.576 475.089C101.585 464.065 105.878 453.7 113.675 445.916C121.48 438.114 131.84 433.823 142.87 433.823ZM129.033 488.911C136.412 496.296 149.293 496.287 156.689 488.911C160.383 485.228 162.417 480.311 162.417 475.089C162.417 469.859 160.383 464.959 156.689 461.267C152.995 457.575 148.085 455.542 142.861 455.542C137.637 455.542 132.727 457.575 129.033 461.267C125.339 464.959 123.305 469.868 123.305 475.089C123.305 480.311 125.339 485.219 129.033 488.911Z" fill="#DF0E12"/>
<path id="Shape_4" opacity="0.5" fill-rule="evenodd" clip-rule="evenodd" d="M574.614 445.916C582.402 438.114 592.762 433.823 603.8 433.823C614.839 433.823 625.199 438.114 632.987 445.907C649.092 462.006 649.092 488.173 632.987 504.271C625.199 512.064 614.83 516.356 603.809 516.356C592.788 516.356 582.411 512.056 574.614 504.263C566.809 496.478 562.516 486.123 562.516 475.089C562.516 464.073 566.818 453.709 574.614 445.916ZM589.972 488.903C597.369 496.279 610.241 496.305 617.629 488.911C625.251 481.284 625.251 468.895 617.629 461.258C613.935 457.566 609.024 455.533 603.8 455.533C598.577 455.533 593.666 457.566 589.972 461.258C586.278 464.951 584.245 469.859 584.245 475.081C584.245 480.311 586.278 485.21 589.972 488.903Z" fill="#DF0E12"/>
<path id="Shape_5" fill-rule="evenodd" clip-rule="evenodd" d="M172.047 43.5262C164.251 51.3191 153.891 55.6108 142.861 55.6108C131.84 55.6108 121.471 51.3191 113.658 43.5175C97.5608 27.4278 97.5608 1.25168 113.658 -14.838C121.463 -22.6309 131.823 -26.9226 142.852 -26.9226C153.882 -26.9226 164.251 -22.6222 172.047 -14.8293C188.144 1.26037 188.144 27.4365 172.047 43.5262ZM142.861 -5.2033C137.638 -5.2033 132.727 -3.16168 129.033 0.530602C121.41 8.14974 121.41 20.5471 129.033 28.1663C136.421 35.5508 149.302 35.5508 156.689 28.1663C160.383 24.474 162.417 19.5654 162.417 14.3441C162.417 9.12277 160.383 4.2142 156.689 0.521915C152.995 -3.17037 148.085 -5.2033 142.861 -5.2033Z" fill="#DF0E12"/>
<path id="Shape_6" opacity="0.5" fill-rule="evenodd" clip-rule="evenodd" d="M509.923 494.35C515.981 491.031 522.821 489.276 529.705 489.276C544.819 489.276 558.708 497.512 565.957 510.752C576.882 530.717 569.521 555.842 549.539 566.762C543.481 570.072 536.649 571.827 529.774 571.827C514.66 571.827 500.762 563.591 493.513 550.342C488.211 540.682 487.012 529.535 490.115 518.954C493.209 508.372 500.249 499.632 509.923 494.35ZM512.565 539.926C517.58 549.083 529.844 552.792 539.109 547.71C548.574 542.532 552.059 530.63 546.879 521.169C543.446 514.888 536.858 510.996 529.696 510.996C526.402 510.996 523.256 511.795 520.344 513.402C515.755 515.904 512.417 520.048 510.948 525.061C509.488 530.065 510.062 535.347 512.565 539.926Z" fill="#DF0E12"/>
<path id="Shape_7" fill-rule="evenodd" clip-rule="evenodd" d="M236.747 -4.90793C230.689 -1.5979 223.849 0.157021 216.965 0.157021C201.859 0.157021 187.97 -8.07895 180.721 -21.319C169.805 -41.2835 177.175 -66.4084 197.14 -77.3202C203.207 -80.6302 210.047 -82.3851 216.922 -82.3851C232.028 -82.3851 245.926 -74.1491 253.166 -60.909C258.459 -51.2396 259.667 -40.0845 256.564 -29.5116C253.461 -18.9386 246.421 -10.1988 236.747 -4.90793ZM216.913 -60.6658C213.619 -60.6658 210.464 -59.8578 207.552 -58.268C198.105 -53.0988 194.611 -41.1966 199.782 -31.7356C204.788 -22.5614 217.078 -18.8952 226.317 -23.9601C230.907 -26.4709 234.244 -30.6062 235.713 -35.6191C237.173 -40.6232 236.608 -45.9053 234.096 -50.4925C230.663 -56.765 224.084 -60.6658 216.913 -60.6658Z" fill="#DF0E12"/>
<path id="Shape_8" opacity="0.5" fill-rule="evenodd" clip-rule="evenodd" d="M661.025 356.597C667.744 356.597 674.445 358.283 680.408 361.462C690.142 366.64 697.269 375.302 700.494 385.849C703.718 396.396 702.632 407.56 697.443 417.29C690.246 430.782 676.279 439.157 660.973 439.157C654.255 439.157 647.562 437.48 641.6 434.309C631.857 429.122 624.721 420.469 621.514 409.923C618.298 399.376 619.384 388.212 624.573 378.482C631.744 364.99 645.72 356.597 661.025 356.597ZM651.795 415.135C661.13 420.105 673.35 416.291 678.269 407.073C680.72 402.469 681.225 397.186 679.712 392.191C678.183 387.195 674.802 383.086 670.186 380.636C667.318 379.107 664.233 378.325 661.017 378.325C653.768 378.325 647.154 382.296 643.747 388.69C641.287 393.303 640.765 398.602 642.295 403.598C643.816 408.585 647.197 412.685 651.795 415.135Z" fill="#DF0E12"/>
<path id="Shape_9" fill-rule="evenodd" clip-rule="evenodd" d="M85.6358 132.819C78.9173 132.819 72.2161 131.142 66.2537 127.971C46.1675 117.259 38.5276 92.2209 49.2269 72.1436C56.4148 58.6515 70.3822 50.2679 85.6793 50.2679C92.3979 50.2679 99.1077 51.9446 105.07 55.1243C125.156 65.8189 132.796 90.8569 122.097 110.943C114.909 124.444 100.942 132.819 85.6358 132.819ZM85.688 71.9959C78.4392 71.9959 71.8163 75.9662 68.4092 82.3603C63.342 91.8647 66.9577 103.723 76.4836 108.806C85.7923 113.775 98.0213 109.97 102.932 100.744C107.999 91.2305 104.384 79.3718 94.8663 74.3068C91.9894 72.7691 88.9039 71.9959 85.688 71.9959Z" fill="#DF0E12"/>
<path id="Shape_10" opacity="0.5" fill-rule="evenodd" clip-rule="evenodd" d="M220.702 491.309C227.395 491.309 234.079 492.977 240.024 496.122C249.767 501.265 256.92 509.91 260.162 520.448C263.404 530.995 262.344 542.167 257.172 551.906C250.002 565.442 236.008 573.86 220.668 573.86C213.975 573.86 207.3 572.183 201.355 569.038C181.26 558.379 173.56 533.349 184.215 513.246C191.386 499.719 205.362 491.309 220.702 491.309ZM211.542 549.856C220.911 554.825 233.079 550.968 237.981 541.733C240.432 537.12 240.936 531.829 239.398 526.842C237.86 521.855 234.47 517.763 229.863 515.331C226.986 513.802 223.91 513.037 220.702 513.037C213.436 513.037 206.813 517.016 203.415 523.419C198.374 532.95 202.016 544.808 211.542 549.856Z" fill="#DF0E12"/>
<path id="Shape_11" opacity="0.5" fill-rule="evenodd" clip-rule="evenodd" d="M123.922 381.861C129.233 391.496 130.485 402.642 127.408 413.233C124.34 423.832 117.317 432.598 107.652 437.906C101.568 441.251 94.6927 443.023 87.7742 443.023C72.7031 443.023 58.8227 434.83 51.5739 421.625C40.6139 401.695 47.9235 376.562 67.8532 365.589C73.946 362.236 80.8123 360.463 87.7221 360.463C102.785 360.463 116.665 368.665 123.922 381.861ZM97.1785 418.88C101.759 416.36 105.088 412.207 106.539 407.195C107.991 402.182 107.4 396.908 104.888 392.339C101.446 386.066 94.8666 382.183 87.7221 382.183C84.4193 382.183 81.2556 382.991 78.3352 384.607C68.8875 389.81 65.4196 401.721 70.6171 411.165C75.6235 420.278 87.9742 423.945 97.1785 418.88Z" fill="#DF0E12"/>
<path id="Shape_12" fill-rule="evenodd" clip-rule="evenodd" d="M622.731 107.581C617.411 97.9201 616.177 86.7737 619.254 76.1921C622.331 65.6104 629.345 56.8532 639.01 51.5363C645.094 48.1915 651.96 46.4279 658.87 46.4279C673.941 46.4279 687.822 54.6204 695.079 67.8084C706.048 87.7467 698.747 112.88 678.8 123.853C672.716 127.198 665.841 128.97 658.931 128.97C643.869 128.97 629.997 120.777 622.731 107.581ZM649.483 70.5624C644.903 73.0818 641.574 77.2346 640.122 82.2474C638.662 87.2602 639.245 92.5337 641.756 97.1034C646.798 106.252 659.061 109.918 668.327 104.818C677.774 99.6229 681.242 87.712 676.036 78.2684C672.594 72.0219 666.023 68.1385 658.87 68.1385C655.611 68.1385 652.369 68.9726 649.483 70.5624Z" fill="#DF0E12"/>
</g>
</g>
<defs>
<linearGradient id="paint0_linear" x1="0.458984" y1="-138.195" x2="0.458984" y2="607.221" gradientUnits="userSpaceOnUse">
<stop stop-color="#D91114"/>
<stop offset="1"/>
</linearGradient>
</defs>
</svg>
