<svg viewBox="0 0 50 70" fill="none" xmlns="http://www.w3.org/2000/svg">
<g id="Group 23" opacity="0.45">
<path id="{}" d="M19.744 39.574C19.9787 39.662 20.162 39.7867 20.294 39.948C20.426 40.124 20.492 40.3073 20.492 40.498C20.492 40.7473 20.404 40.9673 20.228 41.158C20.052 41.3487 19.8393 41.444 19.59 41.444C19.4433 41.444 19.3333 41.4367 19.26 41.422C17.7493 41.114 16.7007 40.6153 16.114 39.926C15.5273 39.2513 15.234 38.3493 15.234 37.22L15.278 34.976C15.278 34.184 15.102 33.59 14.75 33.194C14.398 32.798 13.9213 32.5853 13.32 32.556H13.232C12.9533 32.556 12.7113 32.4607 12.506 32.27C12.3153 32.0793 12.22 31.8373 12.22 31.544C12.22 31.2507 12.3153 31.0087 12.506 30.818C12.7113 30.6273 12.9533 30.532 13.232 30.532H13.364C13.9507 30.5027 14.4127 30.29 14.75 29.894C15.102 29.498 15.278 28.904 15.278 28.112L15.234 25.868C15.234 24.7387 15.5273 23.8367 16.114 23.162C16.7007 22.4727 17.7493 21.974 19.26 21.666C19.3187 21.6513 19.4067 21.644 19.524 21.644C19.832 21.644 20.0667 21.7393 20.228 21.93C20.404 22.1207 20.492 22.3553 20.492 22.634C20.492 22.8247 20.4187 23.0007 20.272 23.162C20.14 23.3233 19.964 23.4407 19.744 23.514C19.1573 23.7193 18.7173 23.9467 18.424 24.196C18.1307 24.4307 17.9327 24.7093 17.83 25.032C17.742 25.34 17.698 25.7433 17.698 26.242L17.742 28.53C17.742 29.3367 17.544 29.982 17.148 30.466C16.7667 30.9353 16.2167 31.2947 15.498 31.544C16.2167 31.7933 16.7667 32.16 17.148 32.644C17.544 33.128 17.742 33.766 17.742 34.558L17.698 36.846C17.698 37.3447 17.7493 37.748 17.852 38.056C17.9547 38.364 18.1453 38.6353 18.424 38.87C18.7173 39.1193 19.1573 39.354 19.744 39.574ZM28.4201 30.488C28.6987 30.488 28.9334 30.5833 29.1241 30.774C29.3294 30.9647 29.4321 31.2067 29.4321 31.5C29.4321 31.7933 29.3294 32.0353 29.1241 32.226C28.9334 32.4167 28.6987 32.512 28.4201 32.512H28.2881C27.7014 32.5413 27.2321 32.754 26.8801 33.15C26.5427 33.546 26.3741 34.14 26.3741 34.932L26.4181 37.176C26.4181 38.3053 26.1247 39.2073 25.5381 39.882C24.9514 40.5713 23.9027 41.07 22.3921 41.378C22.2454 41.4073 22.1207 41.422 22.0181 41.422C21.7687 41.422 21.5634 41.312 21.4021 41.092C21.2407 40.872 21.1601 40.6447 21.1601 40.41C21.1601 40.2193 21.2261 40.0433 21.3581 39.882C21.5047 39.7207 21.6881 39.6033 21.9081 39.53C22.4947 39.3247 22.9347 39.0973 23.2281 38.848C23.5214 38.6133 23.7121 38.3347 23.8001 38.012C23.9027 37.704 23.9541 37.3007 23.9541 36.802L23.9101 34.514C23.9101 33.7073 24.1007 33.0693 24.4821 32.6C24.8781 32.116 25.4354 31.7493 26.1541 31.5C25.4354 31.2507 24.8781 30.884 24.4821 30.4C24.1007 29.916 23.9101 29.278 23.9101 28.486L23.9541 26.198C23.9541 25.6993 23.9027 25.296 23.8001 24.988C23.6974 24.68 23.4994 24.4087 23.2061 24.174C22.9274 23.9247 22.4947 23.69 21.9081 23.47C21.6734 23.382 21.4901 23.2573 21.3581 23.096C21.2261 22.92 21.1601 22.7367 21.1601 22.546C21.1601 22.2967 21.2481 22.0767 21.4241 21.886C21.6001 21.6953 21.8127 21.6 22.0621 21.6C22.2087 21.6 22.3187 21.6073 22.3921 21.622C23.9027 21.93 24.9514 22.4287 25.5381 23.118C26.1247 23.7927 26.4181 24.6947 26.4181 25.824L26.3741 28.068C26.3741 28.86 26.5501 29.454 26.9021 29.85C27.2541 30.246 27.7307 30.4587 28.3321 30.488H28.4201Z" fill="white"/>
<g id="noun_Script File_3232232">
<path id="Shape" fill-rule="evenodd" clip-rule="evenodd" d="M45.5831 16.7448H39.6973V4.08601C39.7014 1.84119 37.9469 0.0168197 35.776 0.00843181H12.4758C12.378 -0.0028106 12.2794 -0.0028106 12.1816 0.00843181C12.0599 0.0388971 11.9415 0.0822342 11.8284 0.137758L11.7401 0.22144C11.6279 0.286252 11.5241 0.365492 11.4311 0.45727L10.0406 1.91029L0.395385 11.9749C0.194808 12.1825 0.0589906 12.4475 0.00545514 12.7356C-0.00181838 12.8166 -0.00181838 12.8981 0.00545514 12.9791V13.0323V55.2535C-0.00685574 57.4896 1.72771 59.3171 3.89004 59.3463H10.2687V65.805C10.3839 68.2154 12.3505 70.0829 14.683 69.9967H45.5831C46.7123 70.0419 47.8126 69.6205 48.6408 68.8254C49.469 68.0304 49.9572 66.9272 49.9974 65.7594V20.9821C50.0009 20.9238 50.0009 20.8654 49.9974 20.8071C49.8398 18.4367 47.8783 16.6315 45.5831 16.7448ZM38.0788 66.9537L47.0545 57.6727V62.3893L42.6402 66.9537H38.0788ZM47.0545 50.8412L31.4573 66.9537H36.0188L47.0545 55.5426V50.8412ZM24.8359 66.9537L32.193 59.3463H35.7465C36.1468 59.3406 36.5438 59.2713 36.9237 59.1409L29.3973 66.9537H24.8359ZM25.5716 59.3463L18.2144 66.9537H22.7759L30.133 59.3463H25.5716ZM47.0545 41.8492L39.6973 49.4567V44.7857L47.0545 37.1783V41.8492ZM39.6973 42.61L47.0545 35.0026V30.3468L39.6973 37.9542V42.61ZM47.0545 28.1559L39.6973 35.7633V31.1076L47.0545 23.5001V28.1559ZM39.6973 51.6172V55.2687C39.6929 55.6933 39.6233 56.1143 39.4913 56.5164L47.0545 48.6959V44.0098L39.6973 51.6172ZM47.0545 20.9441C47.0508 20.9845 47.0508 21.0253 47.0545 21.0658V21.3549L39.6973 28.9623V24.2761L44.0381 19.7877H45.5831C46.2956 19.6971 46.9482 20.2099 47.0545 20.9441ZM39.6973 22.1308L41.9633 19.7877H39.6973V22.1308ZM2.91153 55.2687V13.7018L11.0044 5.22712V10.9479C11.0085 11.2601 10.7692 11.5178 10.4673 11.5261H6.95797C6.14532 11.5261 5.48654 12.2073 5.48654 13.0476C5.48654 13.8878 6.14532 14.569 6.95797 14.569H10.4673C12.3945 14.5606 13.9514 12.9406 13.9473 10.9479V3.0514H35.776C36.3216 3.05974 36.7586 3.52174 36.7545 4.08601V55.2687C36.7586 55.833 36.3216 56.295 35.776 56.3033H3.89004C3.34438 56.295 2.90743 55.833 2.91153 55.2687ZM16.9343 59.3463H13.2116V63.1957L16.9343 59.3463ZM13.2116 65.7898V65.341L19.009 59.3463H23.5116L16.1544 66.9537H14.683C13.9691 67.0399 13.3179 66.5248 13.2116 65.7898ZM44.7002 66.9537H45.5831C46.3058 67.0346 46.9589 66.5045 47.0545 65.7594V64.5194L44.7002 66.9537Z" fill="white"/>
</g>
</g>
</svg>
