<svg viewBox="0 0 283 51" fill="none" xmlns="http://www.w3.org/2000/svg">
<path fill-rule="evenodd" clip-rule="evenodd" d="M220.943 41.316C222.647 41.316 224.27 40.9396 225.811 40.1867C227.352 39.4338 228.576 38.5249 229.482 37.4599C229.519 38.4147 229.836 39.2043 230.434 39.8286C231.033 40.453 231.803 40.7651 232.746 40.7651C233.689 40.7651 234.468 40.4438 235.085 39.8011C235.701 39.1584 236.009 38.3596 236.009 37.4048V3.36037C236.009 2.36879 235.701 1.56083 235.085 0.936496C234.468 0.312165 233.689 0 232.746 0C231.803 0 231.023 0.321347 230.407 0.964041C229.791 1.60673 229.482 2.40551 229.482 3.36037V14.1576C228.431 13.166 227.143 12.3489 225.621 11.7062C224.098 11.0635 222.466 10.7422 220.725 10.7422C218.296 10.7422 216.075 11.394 214.062 12.6978C212.05 14.0015 210.463 15.8194 209.303 18.1515C208.142 20.4836 207.562 23.1186 207.562 26.0566C207.562 28.9947 208.152 31.6205 209.33 33.9342C210.509 36.2479 212.113 38.0566 214.144 39.3604C216.174 40.6641 218.441 41.316 220.943 41.316ZM168.128 39.8011C167.439 40.4438 166.641 40.7651 165.735 40.7651C164.756 40.7651 163.949 40.4438 163.314 39.8011C162.68 39.1584 162.362 38.3596 162.362 37.4048V5.56389C162.362 4.60903 162.689 3.81026 163.341 3.16756C163.994 2.52487 164.828 2.20352 165.843 2.20352C166.75 2.20352 167.53 2.52487 168.182 3.16756C168.835 3.81026 169.161 4.60903 169.161 5.56389V37.4048C169.161 38.3596 168.817 39.1584 168.128 39.8011ZM201.198 39.8011C200.582 40.4438 199.802 40.7651 198.86 40.7651C197.917 40.7651 197.137 40.4438 196.521 39.8011C195.904 39.1584 195.596 38.3596 195.596 37.4048V23.3022C195.596 21.2823 195.179 19.694 194.345 18.5371C193.511 17.3803 192.079 16.8018 190.048 16.8018C187.945 16.8018 186.295 17.417 185.098 18.6473C183.902 19.8776 183.303 21.4292 183.303 23.3022V37.4048C183.303 38.3596 182.995 39.1584 182.379 39.8011C181.762 40.4438 180.983 40.7651 180.04 40.7651C179.097 40.7651 178.317 40.4438 177.701 39.8011C177.084 39.1584 176.776 38.3596 176.776 37.4048V14.6534C176.776 13.6986 177.084 12.8998 177.701 12.2571C178.317 11.6144 179.097 11.293 180.04 11.293C180.983 11.293 181.762 11.6144 182.379 12.2571C182.995 12.8998 183.303 13.6986 183.303 14.6534V15.5899C184.282 14.2678 185.561 13.1293 187.138 12.1745C188.715 11.2196 190.447 10.7422 192.332 10.7422C196.031 10.7422 198.588 11.8531 200.002 14.075C201.416 16.2969 202.123 19.3726 202.123 23.3022V37.4048C202.123 38.3596 201.815 39.1584 201.198 39.8011ZM216.02 32.6397C217.489 34.3841 219.402 35.2563 221.759 35.2563C224.116 35.2563 226.038 34.3841 227.524 32.6397C229.011 30.8952 229.754 28.7009 229.754 26.0566C229.754 23.4124 229.011 21.2089 227.524 19.4461C226.038 17.6833 224.116 16.8018 221.759 16.8018C219.438 16.8018 217.534 17.6833 216.047 19.4461C214.561 21.2089 213.817 23.4124 213.817 26.0566C213.817 28.7009 214.552 30.8952 216.02 32.6397ZM245.909 7.71232C247.178 7.71232 248.075 7.51952 248.601 7.1339C249.127 6.74828 249.39 6.02296 249.39 4.95792V3.91125C249.39 2.88294 249.136 2.1668 248.628 1.76282C248.121 1.35884 247.232 1.15685 245.963 1.15685C244.767 1.15685 243.896 1.35884 243.352 1.76282C242.808 2.1668 242.536 2.88294 242.536 3.91125V4.95792C242.536 5.98623 242.79 6.70238 243.298 7.10636C243.806 7.51033 244.676 7.71232 245.909 7.71232ZM248.302 39.8011C247.686 40.4438 246.906 40.7651 245.963 40.7651C245.02 40.7651 244.241 40.4438 243.624 39.8011C243.008 39.1584 242.7 38.3596 242.7 37.4048V14.6534C242.7 13.6986 243.008 12.8998 243.624 12.2571C244.241 11.6144 245.02 11.293 245.963 11.293C246.906 11.293 247.686 11.6144 248.302 12.2571C248.919 12.8998 249.227 13.6986 249.227 14.6534V37.4048C249.227 38.3596 248.919 39.1584 248.302 39.8011ZM267.666 41.316C269.37 41.316 270.993 40.9396 272.534 40.1867C274.075 39.4338 275.299 38.5249 276.205 37.4599C276.242 38.4147 276.559 39.2043 277.157 39.8286C277.755 40.453 278.526 40.7651 279.469 40.7651C280.412 40.7651 281.191 40.4438 281.808 39.8011C282.424 39.1584 282.732 38.3596 282.732 37.4048V14.1025C282.732 13.111 282.424 12.303 281.808 11.6787C281.191 11.0543 280.412 10.7422 279.469 10.7422C278.526 10.7422 277.746 11.0635 277.13 11.7062C276.514 12.3489 276.205 13.1477 276.205 14.1025V14.1576C275.154 13.166 273.866 12.3489 272.343 11.7062C270.82 11.0635 269.189 10.7422 267.448 10.7422C265.019 10.7422 262.798 11.394 260.785 12.6978C258.773 14.0015 257.186 15.8194 256.026 18.1515C254.865 20.4836 254.285 23.1186 254.285 26.0566C254.285 28.9947 254.874 31.6205 256.053 33.9342C257.231 36.2479 258.836 38.0566 260.867 39.3604C262.897 40.6641 265.164 41.316 267.666 41.316ZM262.743 32.6397C264.212 34.3841 266.125 35.2563 268.482 35.2563C270.839 35.2563 272.76 34.3841 274.247 32.6397C275.734 30.8952 276.477 28.7009 276.477 26.0566C276.477 23.4124 275.734 21.2089 274.247 19.4461C272.76 17.6833 270.839 16.8018 268.482 16.8018C266.161 16.8018 264.257 17.6833 262.77 19.4461C261.284 21.2089 260.54 23.4124 260.54 26.0566C260.54 28.7009 261.275 30.8952 262.743 32.6397Z" fill="#FBC300"/>
<path fill-rule="evenodd" clip-rule="evenodd" d="M81.729 40.3745C84.8939 40.3745 87.8789 39.6767 90.6842 38.2813C91.2236 38.0308 91.6372 37.673 91.9249 37.2079C92.2126 36.7427 92.3565 36.2239 92.3565 35.6514C92.3565 34.8643 92.0868 34.1308 91.5473 33.4509C90.8999 32.6638 90.1087 32.2702 89.1736 32.2702C88.6701 32.2702 88.0947 32.4133 87.4474 32.6996C85.829 33.5225 83.9229 33.934 81.729 33.934C78.0247 33.934 75.0307 32.8427 72.7469 30.6601C70.4632 28.4775 69.3213 25.2751 69.3213 21.053C69.3213 18.5842 69.8248 16.3927 70.8318 14.4784C71.8388 12.5642 73.2774 11.0793 75.1475 10.0237C77.0177 8.96823 79.2115 8.44047 81.729 8.44047C83.779 8.44047 85.6851 8.85194 87.4474 9.67489C88.0588 9.99691 88.6701 10.1579 89.2815 10.1579C90.1806 10.1579 90.9179 9.78223 91.4933 9.03084C92.0328 8.31524 92.3026 7.58174 92.3026 6.83035C92.3026 5.57804 91.7451 4.66564 90.6302 4.09315C87.8969 2.69772 84.9299 2 81.729 2C78.0247 2 74.698 2.814 71.7489 4.44201C68.7998 6.07002 66.4891 8.33313 64.8168 11.2313C63.1444 14.1295 62.3083 17.4035 62.3083 21.053C62.3083 25.1678 63.1894 28.6743 64.9516 31.5725C66.7139 34.4707 69.0696 36.6622 72.0186 38.1471C74.9677 39.632 78.2045 40.3745 81.729 40.3745ZM3.07495 39.8377C4.01003 39.8377 4.76528 39.5336 5.34071 38.9253C5.91614 38.3171 6.20385 37.5299 6.20385 36.5638V26.4201H15.5906C17.4247 26.4201 19.169 25.8745 20.8234 24.7832C22.4777 23.6919 23.8084 22.2159 24.8154 20.3553C25.8224 18.4948 26.3259 16.4911 26.3259 14.3442C26.3259 12.1616 25.8224 10.149 24.8154 8.30629C23.8084 6.4636 22.4777 4.99661 20.8234 3.9053C19.169 2.814 17.4247 2.26835 15.5906 2.26835H3.29074C2.35567 2.26835 1.57344 2.58143 0.944065 3.20759C0.314688 3.83374 0 4.61197 0 5.54226V36.5638C0 37.4941 0.287715 38.2724 0.863145 38.8985C1.43857 39.5247 2.17584 39.8377 3.07495 39.8377ZM15.5906 20.3017H6.20385V8.44047H15.5906C16.2739 8.44047 16.9482 8.71776 17.6135 9.27236C18.2789 9.82696 18.8184 10.5605 19.2319 11.4729C19.6455 12.3853 19.8523 13.3424 19.8523 14.3442C19.8523 15.3461 19.6455 16.3032 19.2319 17.2156C18.8184 18.128 18.2789 18.8704 17.6135 19.4429C16.9482 20.0154 16.2739 20.3017 15.5906 20.3017ZM52.8676 47.3785C50.3501 49.5074 46.9874 50.5719 42.7796 50.5719C41.5568 50.5719 40.3071 50.4735 39.0303 50.2767C37.7536 50.0799 36.7196 49.8205 35.9284 49.4984C34.1661 48.7471 33.285 47.7094 33.285 46.3856C33.285 46.1351 33.339 45.8488 33.4469 45.5268C33.6626 44.7397 34.0313 44.1403 34.5528 43.7289C35.0742 43.3174 35.6407 43.1116 36.2521 43.1116C36.6117 43.1116 36.9534 43.1653 37.2771 43.2727C37.5288 43.38 37.9694 43.5589 38.5988 43.8094C39.2281 44.0598 39.8935 44.2656 40.5948 44.4266C41.2961 44.5876 42.0244 44.6681 42.7796 44.6681C45.3331 44.6681 47.2122 44.1224 48.417 43.0311C49.6218 41.9398 50.2242 40.0703 50.2242 37.4226V36.8859C48.3541 39.2116 45.441 40.3745 41.4849 40.3745C39.6147 40.3745 37.9604 39.9361 36.5218 39.0595C35.0832 38.1829 33.9683 36.9664 33.1771 35.4099C32.3859 33.8535 31.9903 32.0734 31.9903 30.0697V14.3979C31.9903 13.4676 32.296 12.6894 32.9074 12.0632C33.5188 11.4371 34.292 11.124 35.2271 11.124C36.1622 11.124 36.9354 11.4371 37.5468 12.0632C38.1582 12.6894 38.4639 13.4676 38.4639 14.3979V28.1376C38.4639 30.3917 38.9584 32.0108 39.9474 32.9947C40.9364 33.9787 42.384 34.4707 44.2901 34.4707C46.1603 34.4707 47.6078 33.925 48.6328 32.8337C49.6578 31.7424 50.1703 30.177 50.1703 28.1376V14.3979C50.1703 13.4676 50.476 12.6894 51.0874 12.0632C51.6988 11.4371 52.472 11.124 53.4071 11.124C54.3422 11.124 55.1154 11.4371 55.7268 12.0632C56.3382 12.6894 56.6439 13.4676 56.6439 14.3979V37.2079C56.6439 41.8593 55.3851 45.2495 52.8676 47.3785ZM151.913 38.8985C151.302 39.5247 150.529 39.8377 149.594 39.8377C148.659 39.8377 147.885 39.5247 147.274 38.8985C146.663 38.2724 146.357 37.4941 146.357 36.5638V22.8242C146.357 20.8563 145.943 19.3088 145.116 18.1817C144.289 17.0546 142.868 16.4911 140.854 16.4911C138.769 16.4911 137.132 17.0904 135.945 18.289C134.758 19.4877 134.165 20.9994 134.165 22.8242V36.5638C134.165 37.4941 133.859 38.2724 133.248 38.8985C132.637 39.5247 131.863 39.8377 130.928 39.8377C129.993 39.8377 129.22 39.5247 128.609 38.8985C127.997 38.2724 127.691 37.4941 127.691 36.5638V14.3979C127.691 13.4676 127.997 12.6894 128.609 12.0632C129.22 11.4371 129.993 11.124 130.928 11.124C131.863 11.124 132.637 11.4371 133.248 12.0632C133.859 12.6894 134.165 13.4676 134.165 14.3979V15.3103C135.136 14.0222 136.404 12.913 137.968 11.9827C139.533 11.0524 141.25 10.5873 143.12 10.5873C146.789 10.5873 149.324 11.6696 150.727 13.8344C152.129 15.9991 152.831 18.9957 152.831 22.8242V36.5638C152.831 37.4941 152.525 38.2724 151.913 38.8985Z" fill="#DF0E12"/>
<path fill-rule="evenodd" clip-rule="evenodd" d="M118.824 21.7461C120.499 22.3916 122.202 23.5713 123.915 25.2757L124.252 25.6102L123.925 25.9552C123.813 26.0744 121.849 28.1196 119.1 29.2504C117.968 33.1641 114.895 36.2682 110.987 37.458C109.835 40.0596 107.899 41.9007 107.779 42.0133L107.432 42.338L107.095 42.0031C105.539 40.4558 104.422 38.9209 103.743 37.4091C99.9214 36.1896 96.9224 33.134 95.7955 29.291C92.9933 28.17 90.9809 26.076 90.8669 25.9556L90.54 25.6106L90.8771 25.2753C92.6275 23.5349 94.3665 22.344 96.0749 21.7078C97.331 18.3658 100.037 15.7232 103.428 14.5369C104.043 12.7695 105.265 10.967 107.095 9.14694L107.432 8.81168L107.779 9.13678C107.911 9.26025 110.235 11.4711 111.303 14.4857C114.779 15.6493 117.556 18.3357 118.824 21.7461ZM115.965 21.167C116.508 21.176 117.056 21.2456 117.607 21.3733C116.432 18.7858 114.289 16.7247 111.637 15.6497C111.75 16.1628 111.818 16.6914 111.829 17.2322C113.577 18.1012 115.015 19.4751 115.965 21.167ZM111.826 33.4993L111.824 33.4423C111.821 33.3721 111.819 33.302 111.814 33.2309C111.752 32.3795 111.538 31.5659 111.179 30.7903C111.723 30.3761 112.199 29.8783 112.58 29.3102C113.42 29.7036 114.306 29.9268 115.235 29.9752C114.462 31.4546 113.276 32.6741 111.826 33.4993ZM102.284 29.2769C101.45 29.6782 100.572 29.9127 99.6503 29.9725C100.411 31.4225 101.568 32.626 102.982 33.4528L102.987 33.3802L102.987 33.3802L102.987 33.3802L102.987 33.3801L102.987 33.3801L102.987 33.3801L102.987 33.3801L102.987 33.38L102.987 33.38L102.987 33.38L102.987 33.3799L102.987 33.3799L102.987 33.3799L102.987 33.3799L102.987 33.3798L102.987 33.3798L102.987 33.3798L102.987 33.3797L102.987 33.3797L102.987 33.3797L102.987 33.3797L102.987 33.3796L102.987 33.3796L102.987 33.3796L102.987 33.3795L102.987 33.3795L102.987 33.3795L102.987 33.3795L102.987 33.3794L102.987 33.3794L102.987 33.3794L102.987 33.3793L102.987 33.3793L102.987 33.3793L102.987 33.3793C102.994 33.287 103 33.1948 103.012 33.1031C103.116 32.245 103.372 31.4761 103.702 30.7891C103.149 30.3675 102.667 29.858 102.284 29.2769ZM116.037 26.9762C115.44 26.9762 114.955 26.4937 114.955 25.9005C114.955 25.307 115.44 24.8244 116.037 24.8244C116.634 24.8244 117.119 25.307 117.119 25.9005C117.119 26.4937 116.633 26.9762 116.037 26.9762ZM113.586 25.4348H114.031C114.24 24.5446 115.03 23.878 115.982 23.8526C115.839 23.2614 115.632 22.698 115.376 22.1619C114.412 22.2342 113.555 22.5237 112.814 22.9141C113.244 23.6701 113.514 24.5243 113.586 25.4348ZM112.604 26.412C112.551 26.9637 112.41 27.4901 112.196 27.9781C111.326 27.4162 110.511 26.6285 109.758 25.6125C110.082 25.1624 110.844 24.216 111.978 23.424C112.317 24.0304 112.536 24.7107 112.604 25.4348H111.394V26.4116H112.604V26.412ZM107.723 26.9286C109.027 27.8363 110.022 28.8378 110.707 29.9236C111.094 29.611 111.434 29.2449 111.717 28.8358C110.646 28.1559 109.656 27.179 108.757 25.9013L108.573 25.6407L108.739 25.3683C108.801 25.266 109.722 23.7827 111.412 22.6065C111.116 22.2568 110.775 21.9477 110.397 21.6863C109.733 22.5964 108.841 23.4435 107.724 24.2219L107.462 24.4044L107.188 24.2399C107.093 24.1828 105.66 23.304 104.488 21.6856C104.095 21.9571 103.74 22.2795 103.437 22.646C105.09 23.8155 105.991 25.2667 106.053 25.3683L106.218 25.6403L106.034 25.9009C105.152 27.1536 104.184 28.1176 103.137 28.7956C103.425 29.2211 103.776 29.6009 104.176 29.9236C105.389 28.0121 107.084 26.9727 107.187 26.9106L107.461 26.7461L107.723 26.9286ZM107.396 35.5695C106.8 35.5695 106.314 35.0869 106.314 34.4934C106.314 33.8999 106.8 33.4173 107.396 33.4173C107.993 33.4173 108.478 33.8999 108.478 34.4934C108.478 35.0869 107.992 35.5695 107.396 35.5695ZM106.905 31.0513V29.8275H107.887V31.0568C108.605 30.9958 109.283 30.7907 109.888 30.4672C109.319 29.5571 108.5 28.7072 107.433 27.9242C106.936 28.2782 105.835 29.1535 105.001 30.4699C105.579 30.7782 106.222 30.981 106.905 31.0513ZM98.8908 27.9394C99.8059 27.8796 100.558 27.2306 100.761 26.3663H101.295C101.348 27.0911 101.525 27.7812 101.81 28.415C100.992 28.8018 100.128 29.0019 99.2228 29.0093C99.0912 28.6623 98.9776 28.3063 98.8908 27.9394ZM98.8998 23.8624C99.7945 23.9253 100.528 24.5509 100.747 25.3894H101.299C101.376 24.511 101.637 23.685 102.047 22.9508C101.313 22.5546 100.465 22.2529 99.5069 22.167C99.2503 22.7046 99.0432 23.27 98.8998 23.8624ZM98.7552 24.8244C99.3521 24.8244 99.8373 25.307 99.8373 25.9005C99.8373 26.4937 99.3521 26.9762 98.7552 26.9762C98.1584 26.9762 97.6732 26.4937 97.6732 25.9005C97.6736 25.3074 98.1588 24.8244 98.7552 24.8244ZM103.47 26.3663H102.277C102.325 26.9176 102.457 27.4451 102.667 27.934C103.51 27.3756 104.301 26.6007 105.034 25.6125C104.716 25.171 103.977 24.2516 102.879 23.4693C102.561 24.0515 102.353 24.7005 102.282 25.3894H103.47V26.3663ZM103.986 17.9211C103.985 17.9145 103.984 17.9079 103.984 17.9014C103.984 17.8948 103.983 17.8883 103.982 17.8817C104.419 17.6964 104.875 17.546 105.345 17.4319C105.402 18.3548 106.067 19.1148 106.951 19.3094V19.81C106.193 19.8698 105.475 20.0671 104.819 20.3758C104.415 19.6677 104.098 18.8472 103.986 17.9211ZM108.478 17.3073C108.478 16.7137 107.993 16.2311 107.396 16.2311C106.8 16.2311 106.314 16.7137 106.314 17.3073C106.314 17.9008 106.8 18.3834 107.396 18.3834C107.993 18.3834 108.478 17.9008 108.478 17.3073ZM109.45 17.4104C109.927 17.521 110.391 17.6675 110.834 17.8508V17.8523C110.769 18.7362 110.514 19.579 110.07 20.3773C109.412 20.0675 108.693 19.8694 107.933 19.8092V19.2801C108.777 19.0527 109.404 18.3099 109.45 17.4104ZM106.951 21.9474V20.7864C106.39 20.8392 105.855 20.9822 105.36 21.1991C106.128 22.2271 107.004 22.9215 107.433 23.2267C108.295 22.594 108.993 21.9177 109.53 21.2018C109.033 20.9834 108.497 20.8392 107.933 20.7864V21.9474H106.951ZM112.252 22.088C111.872 21.6176 111.426 21.2034 110.925 20.8611C111.375 20.0554 111.658 19.2047 111.773 18.313C113.031 19.0187 114.093 20.0194 114.864 21.2296C113.881 21.3612 113.008 21.6801 112.252 22.088ZM107.887 15.3195C108.471 15.4625 108.952 15.8517 109.222 16.371C109.773 16.4718 110.305 16.6172 110.818 16.8036C110.771 16.2773 110.668 15.7619 110.519 15.2648C109.678 15.0241 108.797 14.8788 107.887 14.8432V15.3195ZM106.905 15.3195C106.314 15.4641 105.828 15.8615 105.56 16.3902C105.005 16.498 104.469 16.6516 103.953 16.8473C103.979 16.3402 104.067 15.8267 104.213 15.3082C105.072 15.0491 105.974 14.8897 106.906 14.8456V15.3195H106.905ZM103.961 20.8595C103.548 20.132 103.22 19.2915 103.063 18.3439C101.825 19.0508 100.777 20.0452 100.016 21.2421C100.991 21.3847 101.857 21.7113 102.605 22.124C102.991 21.6387 103.447 21.2104 103.961 20.8595ZM97.8567 24.0613C97.3204 24.3219 96.9165 24.8033 96.764 25.3894H96.3059C96.3542 24.3762 96.5416 23.3994 96.8461 22.4745C97.3793 22.308 97.9066 22.2056 98.4276 22.1634C98.1741 22.7664 97.9852 23.4025 97.8567 24.0613ZM97.848 27.7351C97.3015 27.4666 96.8913 26.97 96.7495 26.3663V26.3667H96.3035C96.3334 27.1142 96.4383 27.8425 96.6104 28.5455C97.1054 28.7178 97.6202 28.8506 98.1486 28.9292C98.0225 28.542 97.9254 28.1422 97.848 27.7351ZM103.986 33.2293C104.069 32.5358 104.27 31.9016 104.534 31.3288C105.252 31.7121 106.054 31.9555 106.905 32.029V32.5061C106.032 32.7202 105.38 33.4841 105.341 34.4086C104.858 34.2914 104.392 34.1347 103.945 33.9428C103.946 33.7033 103.957 33.4657 103.986 33.2293ZM106.905 36.4811C106.331 36.3408 105.856 35.9614 105.584 35.455C105.048 35.3526 104.528 35.2073 104.028 35.0221C104.112 35.5437 104.259 36.0716 104.468 36.605C105.25 36.8203 106.065 36.9547 106.905 36.9946V36.4811ZM107.887 36.4811C108.454 36.3428 108.924 35.9708 109.199 35.4738C109.721 35.3796 110.228 35.2456 110.718 35.0744C110.612 35.6199 110.45 36.1474 110.25 36.6519C109.491 36.8488 108.7 36.9656 107.887 36.9977V36.4811ZM107.887 32.5057C108.767 32.721 109.424 33.4954 109.454 34.4297C109.935 34.3187 110.399 34.1699 110.845 33.9854C110.853 33.7576 110.851 33.5283 110.834 33.2977C110.784 32.6174 110.619 31.9618 110.344 31.3315C109.602 31.7265 108.77 31.9704 107.887 32.0333V32.5057ZM115.626 29.0112C114.727 29.0112 113.87 28.8213 113.057 28.4493C113.345 27.8195 113.528 27.1337 113.587 26.412H114.045C114.272 27.2818 115.052 27.9285 115.992 27.9488C115.905 28.3134 115.792 28.6654 115.662 29.0101C115.655 29.0099 115.648 29.0102 115.642 29.0106L115.629 29.0112L115.626 29.0112ZM118.042 26.3663C117.91 26.9313 117.541 27.4014 117.046 27.68C116.968 28.1024 116.869 28.5162 116.74 28.9163C117.271 28.8307 117.786 28.6889 118.281 28.5107C118.448 27.8187 118.55 27.1017 118.58 26.3663H118.042ZM118.028 25.3894C117.886 24.8416 117.523 24.3868 117.038 24.1164C116.911 23.4408 116.719 22.7894 116.462 22.1724C116.985 22.2224 117.514 22.3334 118.049 22.5085C118.347 23.4228 118.53 24.3887 118.578 25.3894H118.028ZM110.109 14.1528C109.3 12.3038 108.04 10.8295 107.442 10.1914C106.134 11.5504 105.192 12.8856 104.616 14.1891C105.356 14.0129 106.121 13.9027 106.905 13.8687V11.9345H107.887V13.8667C108.648 13.8941 109.39 13.9918 110.109 14.1528ZM103.108 15.704C103.004 16.2331 102.956 16.7583 102.964 17.2795C101.262 18.1513 99.8589 19.5068 98.9242 21.1631C98.3828 21.1651 97.837 21.2292 97.2874 21.3499C98.4441 18.8183 100.528 16.7907 103.108 15.704ZM95.6871 22.932C94.4577 23.5123 93.202 24.4079 91.927 25.6207C92.5218 26.1725 93.8404 27.2877 95.5099 28.0895C95.4069 27.5276 95.3429 26.9524 95.3213 26.3663H93.376V25.3894H95.3236C95.3602 24.545 95.4835 23.7229 95.6871 22.932ZM96.953 29.6798C97.4705 29.8197 98.0072 29.9182 98.5572 29.9615C99.4703 31.9539 101.032 33.5798 102.986 34.5727C103.03 35.1151 103.133 35.6609 103.296 36.2107C100.358 35.0354 98.0335 32.6522 96.953 29.6798ZM105.005 37.7409C105.583 38.7959 106.393 39.87 107.442 40.9594C107.954 40.4128 108.951 39.2499 109.735 37.7667C109.134 37.8815 108.517 37.9515 107.887 37.9745V39.8665H106.905V37.9718C106.257 37.9441 105.622 37.8663 105.005 37.7409ZM111.434 36.2705C111.597 35.7438 111.719 35.1956 111.782 34.6313C113.796 33.6455 115.403 31.9942 116.332 29.9537C116.884 29.9037 117.422 29.799 117.94 29.6525C116.845 32.6889 114.454 35.1147 111.434 36.2705ZM119.562 26.3663C119.541 26.936 119.48 27.4955 119.382 28.0426C121.005 27.2451 122.283 26.1619 122.866 25.6211C121.626 24.4419 120.405 23.5611 119.208 22.9797C119.404 23.7561 119.524 24.5618 119.56 25.3894H121.462V26.3663H119.562Z" fill="url(#paint0_linear)"/>
<defs>
<linearGradient id="paint0_linear" x1="90.54" y1="8.81168" x2="90.54" y2="42.338" gradientUnits="userSpaceOnUse">
<stop stop-color="#FAC000"/>
<stop offset="1" stop-color="#E80A0F"/>
</linearGradient>
</defs>
</svg>
