<svg viewBox="0 0 28 29" fill="none" xmlns="http://www.w3.org/2000/svg">
<g id="brands-and-logotypes">
<path id="Path" d="M17.1754 27.9395C17.0588 27.9833 16.9417 28.0237 16.8242 28.0606C16.9417 28.0237 17.0588 27.9833 17.1754 27.9395Z" fill="black"/>
<path id="Path_2" d="M17.0833 27.9663C17.0275 27.99 16.9718 28.0116 16.916 28.0338C16.9718 28.0116 17.0275 27.99 17.0833 27.9663Z" fill="black"/>
<path id="Path_3" d="M17 27.9533C16.6684 27.9887 16.3347 28.0202 16 28.0468C16.3347 28.0202 16.6684 27.9887 17 27.9533Z" fill="black"/>
<path id="Path_4" d="M17.0988 27.9717C17.0332 27.9919 16.9672 28.0106 16.9014 28.0284C16.9672 28.0106 17.0332 27.9919 17.0988 27.9717Z" fill="black"/>
<path id="Path_5" d="M17.0736 27.9643C17.0245 27.9885 16.9751 28.0126 16.9258 28.0358C16.9751 28.0126 17.0245 27.9885 17.0736 27.9643Z" fill="black"/>
<path id="Path_6" d="M18.0638 27.9619C18.0214 27.988 17.9789 28.0126 17.9365 28.0382C17.9789 28.0126 18.0214 27.988 18.0638 27.9619Z" fill="black"/>
<path id="Path_7" d="M18.0654 27.9611C18.0223 27.9872 17.9789 28.0138 17.9355 28.039C17.9789 28.0138 18.0223 27.9877 18.0654 27.9611Z" fill="black"/>
<path id="Path_8" d="M17.0687 27.9643C17.0229 27.989 16.9768 28.0121 16.9307 28.0358C16.9768 28.0121 17.0229 27.989 17.0687 27.9643Z" fill="black"/>
<path id="Path_9" d="M16.111 27.9808C16.0373 27.9951 15.9636 28.0079 15.8896 28.0193C15.9636 28.0079 16.0373 27.9951 16.111 27.9808Z" fill="black"/>
<path id="Path_10" d="M28 14C28 6.2692 21.7308 0 14 0C6.2692 0 0 6.2692 0 14C0 21.7308 6.2692 28 14 28C14.0822 28 14.1641 27.9983 14.2461 27.9968V17.0984H11.2383V13.593H14.2461V11.0135C14.2461 8.02197 16.0724 6.39374 18.7409 6.39374C20.0188 6.39374 21.1173 6.48901 21.4375 6.53152V9.65811H19.5974C18.1456 9.65811 17.8644 10.3481 17.8644 11.3605V13.593H21.3358L20.8834 17.0984H17.8644V27.4591C23.7162 25.7815 28 20.3903 28 14Z" fill="#DD0E12"/>
<path id="Path_11" d="M16 27.9749C15.668 27.9966 15.3345 28.0138 15 28.0252C15.3345 28.0138 15.668 27.9966 16 27.9749Z" fill="black"/>
<path id="Path_12" d="M15.1162 27.9934C15.0389 27.9993 14.9613 28.0037 14.8838 28.0067C14.9613 28.0037 15.0389 27.9993 15.1162 27.9934Z" fill="black"/>
</g>
</svg>
