<svg viewBox="0 0 108 217" fill="none" xmlns="http://www.w3.org/2000/svg">
  <g id="Group 33">
  <g id="noun_Lantern_2692881">
  <g id="Group">
  <g id="Group_2">
  <path id="Path" d="M54.2994 175.194C53.359 175.194 52.5967 174.431 52.5967 173.49C52.5967 163.463 58.758 157.248 65.2811 150.668C69.9732 145.935 74.825 141.041 78.2712 134.164C78.693 133.323 79.7156 132.983 80.5568 133.405C81.3972 133.827 81.7367 134.852 81.3149 135.693C77.6247 143.057 72.3507 148.376 67.698 153.07C61.422 159.401 56.0018 164.868 56.0018 173.49C56.0021 174.431 55.24 175.194 54.2994 175.194Z" fill="#D21316"/>
  <path id="Path_2" d="M54.2068 175.194C53.2664 175.194 52.5041 174.431 52.5041 173.49C52.5041 164.868 47.0839 159.4 40.808 153.07C36.155 148.377 30.8812 143.057 27.191 135.693C26.7692 134.852 27.1088 133.827 27.9492 133.405C28.7901 132.983 29.8129 133.323 30.2347 134.164C33.6812 141.041 38.5329 145.935 43.2249 150.668C49.7481 157.248 55.9095 163.463 55.9095 173.489C55.9095 174.431 55.1472 175.194 54.2068 175.194Z" fill="#D21316"/>
  </g>
  <path id="Shape" fill-rule="evenodd" clip-rule="evenodd" d="M28.4595 187.776H79.5406C80.481 187.776 81.2433 187.013 81.2433 186.071V134.929C81.2433 133.987 80.481 133.224 79.5406 133.224H28.4595C27.5192 133.224 26.7568 133.987 26.7568 134.929V186.071C26.7568 187.013 27.5192 187.776 28.4595 187.776ZM77.8379 184.366H30.1622V136.634H77.8379V184.366Z" fill="#D21316"/>
  <path id="Shape_2" fill-rule="evenodd" clip-rule="evenodd" d="M35.7564 199.953H72.2429C73.1833 199.953 73.9456 199.189 73.9456 198.248V186.071C73.9456 185.13 73.1833 184.366 72.2429 184.366H35.7564C34.816 184.366 34.0537 185.13 34.0537 186.071V198.248C34.0537 199.189 34.816 199.953 35.7564 199.953ZM70.5402 196.543H37.4591V187.776H70.5402V196.543Z" fill="#D21316"/>
  <path id="Shape_3" fill-rule="evenodd" clip-rule="evenodd" d="M35.7564 136.634H72.2429C73.1833 136.634 73.9456 135.87 73.9456 134.929V122.752C73.9456 121.811 73.1833 121.047 72.2429 121.047H35.7564C34.816 121.047 34.0537 121.811 34.0537 122.752V134.929C34.0537 135.87 34.816 136.634 35.7564 136.634ZM70.5402 133.224H37.4591V124.457H70.5402V133.224Z" fill="#D21316"/>
  <path id="Shape_4" fill-rule="evenodd" clip-rule="evenodd" d="M38.9189 122.752C38.9189 123.694 39.6813 124.457 40.6216 124.457H67.3784C68.3188 124.457 69.0811 123.694 69.0811 122.752V119.099C69.0811 110.773 62.3158 104 54 104C45.6843 104 38.9189 110.773 38.9189 119.099V122.752ZM65.6757 119.099V121.047H42.3244V119.099C42.3244 112.654 47.5621 107.409 54 107.409C60.4379 107.409 65.6757 112.654 65.6757 119.099Z" fill="#D21316"/>
  <path id="Shape_5" fill-rule="evenodd" clip-rule="evenodd" d="M38.9189 201.901C38.9189 210.227 45.6843 217 54 217C62.3158 217 69.0811 210.227 69.0811 201.901V198.248C69.0811 197.306 68.3188 196.543 67.3784 196.543H40.6216C39.6813 196.543 38.9189 197.306 38.9189 198.248V201.901ZM42.3244 201.901V199.953H65.6757V201.901C65.6757 208.346 60.4379 213.591 54 213.591C47.5621 213.591 42.3244 208.346 42.3244 201.901Z" fill="#D21316"/>
  <path id="Path_3" d="M86.8379 187.776H79.5406C78.6002 187.776 77.8379 187.013 77.8379 186.071C77.8379 185.13 78.6002 184.366 79.5406 184.366H86.8379C87.7783 184.366 88.5406 185.13 88.5406 186.071C88.5406 187.013 87.7783 187.776 86.8379 187.776Z" fill="#D21316"/>
  <path id="Path_4" d="M28.459 187.776H21.1617C20.2213 187.776 19.459 187.013 19.459 186.071C19.459 185.13 20.2213 184.366 21.1617 184.366H28.459C29.3994 184.366 30.1617 185.13 30.1617 186.071C30.1617 187.013 29.3994 187.776 28.459 187.776Z" fill="#D21316"/>
  <path id="Path_5" d="M86.8379 136.634H79.5406C78.6002 136.634 77.8379 135.87 77.8379 134.929C77.8379 133.987 78.6002 133.224 79.5406 133.224H86.8379C87.7783 133.224 88.5406 133.987 88.5406 134.929C88.5406 135.87 87.7783 136.634 86.8379 136.634Z" fill="#D21316"/>
  <path id="Path_6" d="M28.459 136.634H21.1617C20.2213 136.634 19.459 135.87 19.459 134.929C19.459 133.987 20.2213 133.224 21.1617 133.224H28.459C29.3994 133.224 30.1617 133.987 30.1617 134.929C30.1617 135.87 29.3994 136.634 28.459 136.634Z" fill="#D21316"/>
  <path id="Shape_6" fill-rule="evenodd" clip-rule="evenodd" d="M0 181.687C0 185.313 2.94616 188.263 6.56757 188.263C10.189 188.263 13.1351 185.313 13.1351 181.687C13.1351 178.062 10.189 175.112 6.56757 175.112C2.94616 175.112 0 178.062 0 181.687ZM3.40541 181.687C3.40541 179.942 4.824 178.522 6.56757 178.522C8.31114 178.522 9.72973 179.942 9.72973 181.687C9.72973 183.433 8.31114 184.853 6.56757 184.853C4.824 184.853 3.40541 183.433 3.40541 181.687Z" fill="#F4040A"/>
  <path id="Shape_7" fill-rule="evenodd" clip-rule="evenodd" d="M90 116.664C90 120.961 93.4918 124.457 97.7838 124.457C102.076 124.457 105.568 120.961 105.568 116.664C105.568 112.367 102.076 108.871 97.7838 108.871C93.4918 108.871 90 112.367 90 116.664ZM93.4054 116.664C93.4054 114.247 95.3696 112.28 97.7838 112.28C100.198 112.28 102.162 114.247 102.162 116.664C102.162 119.081 100.198 121.047 97.7838 121.047C95.3696 121.047 93.4054 119.081 93.4054 116.664Z" fill="#F4040A"/>
  <path id="Shape_8" fill-rule="evenodd" clip-rule="evenodd" d="M28.4595 175.194H79.5406C80.481 175.194 81.2433 174.431 81.2431 173.49C81.2431 163.569 75.0803 157.245 68.5555 150.55L68.5543 150.548C63.9268 145.8 59.1417 140.89 55.7755 134.165C55.4868 133.588 54.8979 133.224 54.2538 133.224H54.2533C53.6094 133.224 53.0203 133.588 52.7316 134.164C49.2744 141.063 44.3472 145.969 39.5822 150.713L39.5809 150.714C32.9861 157.28 26.7568 163.482 26.7568 173.49C26.7568 174.431 27.5192 175.194 28.4595 175.194ZM77.7637 171.785H30.2364C30.909 164.157 36.0699 159.018 41.9824 153.132C46.0959 149.036 50.6873 144.465 54.2523 138.475C57.7098 144.302 62.1439 148.852 66.1185 152.931C71.9784 158.944 77.0936 164.193 77.7637 171.785Z" fill="#D21316"/>
  <path id="Shape_9" fill-rule="evenodd" clip-rule="evenodd" d="M94.8652 207.989C94.8652 211.615 97.8114 214.565 101.433 214.565C105.054 214.565 108 211.615 108 207.989C108 204.363 105.054 201.414 101.433 201.414C97.8114 201.414 94.8652 204.363 94.8652 207.989ZM98.2706 207.989C98.2706 206.244 99.6892 204.823 101.433 204.823C103.176 204.823 104.595 206.244 104.595 207.989C104.595 209.735 103.176 211.155 101.433 211.155C99.6892 211.155 98.2706 209.735 98.2706 207.989Z" fill="#F4040A"/>
  <path id="Path_7" d="M77.1084 124.457H30.8922C29.9518 124.457 29.1895 123.694 29.1895 122.752C29.1895 121.811 29.9518 121.047 30.8922 121.047H77.1084C78.0488 121.047 78.8111 121.811 78.8111 122.752C78.8111 123.694 78.0488 124.457 77.1084 124.457Z" fill="#D21316"/>
  <path id="Path_8" d="M77.1084 199.953H30.8922C29.9518 199.953 29.1895 199.189 29.1895 198.248C29.1895 197.306 29.9518 196.543 30.8922 196.543H77.1084C78.0488 196.543 78.8111 197.306 78.8111 198.248C78.8111 199.189 78.0488 199.953 77.1084 199.953Z" fill="#D21316"/>
  <path id="Path_9" d="M54.2535 173.164C53.3131 173.164 52.5508 172.401 52.5508 171.459V134.929C52.5508 133.987 53.3131 133.224 54.2535 133.224C55.1939 133.224 55.9562 133.987 55.9562 134.929V171.459C55.9562 172.401 55.1939 173.164 54.2535 173.164Z" fill="#D21316"/>
  </g>
  </g>
  <rect id="Rectangle" x="52" width="4" height="106" fill="#D21316"/>
  </g>
</svg>
