<svg viewBox="0 0 82 77" fill="none" xmlns="http://www.w3.org/2000/svg">
  <g id="noun_rangoli_1570659 copy" opacity="">
    <g id="Group">
      <path id="Shape" fill-rule="evenodd" clip-rule="evenodd" d="M68.1078 29.8392C72.1269 31.3168 76.2159 34.0172 80.3293 37.9189L81.1377 38.6845L80.3538 39.4743C80.0831 39.7471 75.3679 44.4287 68.769 47.0173C66.0515 55.9762 58.6754 63.0818 49.294 65.8055C46.5265 71.7608 41.8792 75.9755 41.5906 76.2331L40.7577 76.9764L39.9493 76.2098C36.2141 72.6677 33.5316 69.1543 31.9016 65.6936C22.7277 62.902 15.528 55.9073 12.8228 47.1103C6.09563 44.5441 1.26437 39.7507 0.990828 39.4752L0.206055 38.6854L1.01535 37.918C5.21747 33.934 9.39224 31.2077 13.4934 29.7515C16.509 22.1012 23.005 16.052 31.1452 13.3364C32.6223 9.29076 35.5557 5.16462 39.9493 0.998221L40.7577 0.230774L41.5906 0.974965C41.9075 1.25761 47.4877 6.31847 50.0524 13.2192C58.3953 15.8829 65.0621 22.0323 68.1078 29.8392ZM61.2439 28.5136C62.5474 28.5342 63.8623 28.6934 65.1847 28.9859C62.3644 23.0628 57.2191 18.3445 50.8541 15.8838C51.1239 17.0583 51.2871 18.2685 51.3135 19.5064C55.5109 21.4957 58.9622 24.6406 61.2439 28.5136ZM51.3059 56.7437L51.3014 56.6132V56.6131C51.2959 56.4523 51.2904 56.2918 51.2786 56.1292C51.1305 54.1801 50.6155 52.3179 49.7543 50.5424C51.0607 49.5942 52.2029 48.4547 53.116 47.1542C55.1336 48.0549 57.2606 48.5656 59.4913 48.6765C57.6341 52.063 54.7874 54.8546 51.3059 56.7437ZM28.3985 47.0781C26.3979 47.9967 24.2897 48.5334 22.0769 48.6703C23.9021 51.9896 26.6818 54.7446 30.0755 56.6372L30.0795 56.5857L30.088 56.471C30.1037 56.259 30.1194 56.0473 30.1463 55.8367C30.3981 53.8725 31.0122 52.1122 31.8045 50.5397C30.4755 49.5746 29.32 48.4082 28.3985 47.0781ZM61.4155 41.8116C59.9828 41.8116 58.8179 40.7069 58.8179 39.3491C58.8179 37.9904 59.9828 36.8858 61.4155 36.8858C62.8483 36.8858 64.0132 37.9904 64.0132 39.3491C64.0132 40.7069 62.8474 41.8116 61.4155 41.8116ZM55.5326 38.2829H56.5994C57.1031 36.2453 58.999 34.7194 61.2844 34.6612C60.9411 33.3079 60.4431 32.0181 59.83 30.7909C57.5143 30.9564 55.458 31.6192 53.6791 32.5127C54.7101 34.2435 55.359 36.1988 55.5326 38.2829ZM53.1754 40.52C53.0481 41.7829 52.7095 42.9878 52.1954 44.1049C50.1061 42.8187 48.1508 41.0155 46.3417 38.6899C47.1198 37.6595 48.9507 35.4931 51.6719 33.68C52.485 35.0682 53.0113 36.6255 53.1754 38.2829H50.2702V40.5191H53.1754V40.52ZM41.4576 41.7024C44.5872 43.7803 46.9755 46.0728 48.6205 48.5585C49.5496 47.8429 50.3655 47.0048 51.0456 46.0683C48.4743 44.5119 46.0983 42.2758 43.9392 39.3509L43.4978 38.7543L43.8959 38.1308C44.0449 37.8965 46.2549 34.5011 50.3127 31.8088C49.6034 31.0083 48.7837 30.3007 47.8773 29.7023C46.2822 31.7855 44.142 33.7247 41.4585 35.5065L40.8294 35.9242L40.172 35.5476C39.9446 35.4171 36.5046 33.4054 33.69 29.7006C32.7477 30.3222 31.895 31.0601 31.1669 31.8991C35.137 34.5763 37.2989 37.8983 37.4469 38.1308L37.8431 38.7534L37.4026 39.35C35.285 42.2176 32.96 44.4243 30.4472 45.9762C31.1386 46.9502 31.9818 47.8196 32.9411 48.5585C35.8529 44.1828 39.9229 41.8035 40.171 41.6613L40.8284 41.2847L41.4576 41.7024ZM40.6728 61.4825C39.24 61.4825 38.0751 60.3779 38.0751 59.0192C38.0751 57.6605 39.24 56.5558 40.6728 56.5558C42.1046 56.5558 43.2695 57.6605 43.2695 59.0192C43.2695 60.3779 42.1037 61.4825 40.6728 61.4825ZM39.4928 51.1399V48.3384H41.85V51.1524C43.5751 51.0129 45.2013 50.5433 46.6548 49.8027C45.289 47.7195 43.3233 45.774 40.7605 43.9815C39.5673 44.7919 36.9244 46.7955 34.9228 49.8089C36.3103 50.5146 37.8544 50.9789 39.4928 51.1399ZM20.2536 44.0164C22.4504 43.8795 24.2567 42.3938 24.7444 40.4153H26.0253C26.1517 42.0745 26.578 43.6541 27.2628 45.105C25.2971 45.9905 23.2239 46.4484 21.0506 46.4654C20.7347 45.6711 20.4621 44.8563 20.2536 44.0164ZM20.2753 34.6836C22.4231 34.8276 24.185 36.2596 24.7095 38.1791H26.0357C26.2186 36.1684 26.8459 34.2775 27.8306 32.5968C26.0696 31.6898 24.0322 30.9993 21.7326 30.8025C21.1167 32.0333 20.6196 33.3276 20.2753 34.6836ZM19.9282 36.8858C21.361 36.8858 22.5259 37.9904 22.5259 39.3491C22.5259 40.7069 21.361 41.8116 19.9282 41.8116C18.4954 41.8116 17.3305 40.7069 17.3305 39.3491C17.3315 37.9913 18.4964 36.8858 19.9282 36.8858ZM31.247 40.4153H28.3834C28.4975 41.6774 28.8154 42.8849 29.3181 44.0039C31.3433 42.7257 33.241 40.952 35.0011 38.6899C34.238 37.6791 32.4638 35.5745 29.8275 33.7838C29.0653 35.1165 28.5664 36.6022 28.3947 38.1791H31.247V40.4153ZM32.4846 21.0833C32.4827 21.0681 32.4817 21.0531 32.4808 21.0382C32.4799 21.0232 32.4789 21.0082 32.477 20.993C33.525 20.569 34.6191 20.2246 35.7472 19.9635C35.884 22.0762 37.4809 23.8159 39.6032 24.2613V25.4071C37.7837 25.544 36.0604 25.9957 34.4842 26.7023C33.5155 25.0816 32.7534 23.2032 32.4846 21.0833ZM43.2695 19.6781C43.2695 18.3194 42.1046 17.2148 40.6728 17.2148C39.24 17.2148 38.0751 18.3194 38.0751 19.6781C38.0751 21.0368 39.24 22.1415 40.6728 22.1415C42.1046 22.1415 43.2695 21.0368 43.2695 19.6781ZM45.6022 19.9143C46.7491 20.1674 47.8612 20.5028 48.9252 20.9223V20.9259C48.7696 22.9492 48.1564 24.8785 47.0915 26.7059C45.5116 25.9966 43.7845 25.5431 41.9613 25.4054V24.1943C43.9873 23.6737 45.4918 21.9733 45.6022 19.9143ZM39.6032 30.2998V27.6424C38.2562 27.7632 36.9725 28.0905 35.7831 28.587C37.6271 30.9403 39.7315 32.5297 40.7605 33.2283C42.829 31.7802 44.5052 30.2319 45.7955 28.5932C44.6023 28.0932 43.3148 27.7632 41.9613 27.6424V30.2998H39.6032ZM52.3303 30.6219C51.4182 29.5449 50.3466 28.5968 49.145 27.8132C50.2231 25.9689 50.9032 24.0216 51.1795 21.9805C54.1998 23.5959 56.7503 25.8866 58.6009 28.6567C56.2409 28.9582 54.1441 29.688 52.3303 30.6219ZM41.8519 15.128C43.2526 15.4554 44.4071 16.3463 45.056 17.535C46.3775 17.7658 47.6556 18.0985 48.8865 18.5252C48.7733 17.3203 48.5271 16.1405 48.1687 15.0028C46.1502 14.4518 44.0345 14.1191 41.8519 14.0377V15.128ZM39.4938 15.128C38.0751 15.459 36.9065 16.3686 36.2632 17.5788C34.9323 17.8257 33.6447 18.1772 32.4072 18.6254C32.4695 17.4643 32.6789 16.289 33.0307 15.1021C35.0926 14.509 37.2573 14.1441 39.4947 14.043V15.128H39.4938ZM32.4261 27.8097C31.4347 26.1442 30.6462 24.2202 30.2698 22.0511C27.2968 23.6692 24.7821 25.9456 22.9541 28.6853C25.2962 29.0118 27.3741 29.7596 29.17 30.7041C30.0972 29.5932 31.1914 28.6129 32.4261 27.8097ZM17.771 35.1389C16.4835 35.7355 15.5138 36.8375 15.1479 38.1791H14.0481C14.1641 35.8598 14.614 33.6237 15.345 31.5065C16.625 31.1254 17.8908 30.8911 19.1415 30.7945C18.5331 32.1746 18.0795 33.6308 17.771 35.1389ZM17.7503 43.5486C16.4382 42.9341 15.4535 41.7972 15.113 40.4153V40.4162H14.0424C14.1141 42.1273 14.3659 43.7946 14.7791 45.4037C15.9675 45.7982 17.2032 46.1023 18.4718 46.2821C18.1691 45.3957 17.9361 44.4806 17.7503 43.5486ZM32.4846 56.1256C32.6855 54.5379 33.1665 53.0862 33.8004 51.7749C35.5237 52.6524 37.4498 53.2097 39.4938 53.3778V54.47C37.3969 54.9601 35.8321 56.7088 35.7387 58.8251C34.5795 58.5567 33.4608 58.1981 32.3884 57.7589C32.3902 57.2106 32.4157 56.6667 32.4846 56.1256ZM39.4928 63.5693C38.1147 63.2482 36.9753 62.3797 36.3207 61.2204C35.0341 60.9861 33.7872 60.6534 32.5864 60.2294C32.7883 61.4235 33.142 62.6319 33.6438 63.8528C35.5208 64.3457 37.4762 64.6534 39.4928 64.7446V63.5693ZM41.8509 63.5693C43.212 63.2527 44.3401 62.4011 44.9994 61.2634C46.2539 61.0478 47.4717 60.741 48.646 60.3492C48.3932 61.5979 48.0027 62.8054 47.5235 63.9602C45.7003 64.411 43.8025 64.6784 41.8509 64.7518V63.5693ZM41.8509 54.4691C43.9638 54.9619 45.5409 56.7347 45.6116 58.8734C46.7661 58.6194 47.882 58.2786 48.9516 57.8564C48.9714 57.3349 48.9667 56.8099 48.9261 56.2821C48.8063 54.7249 48.4083 53.224 47.749 51.7812C45.9681 52.6855 43.9694 53.2436 41.8509 53.3877V54.4691ZM60.4289 46.4699C58.2717 46.4699 56.2145 46.0352 54.2611 45.1837C54.9525 43.7418 55.3939 42.172 55.5335 40.52H56.6352C57.1785 42.511 59.0527 43.9914 61.3089 44.0379C61.1005 44.8724 60.8279 45.6783 60.5166 46.4672C60.5066 46.4669 60.4967 46.4671 60.487 46.4675L60.4676 46.4685H60.4675H60.4674L60.4672 46.4685L60.4456 46.4696L60.4372 46.4698L60.4289 46.4699ZM66.2308 40.4153C65.9119 41.7087 65.0262 42.7847 63.8387 43.4225C63.6519 44.3894 63.4143 45.3366 63.1039 46.2525C64.3782 46.0567 65.6139 45.732 66.8024 45.3241C67.2042 43.74 67.4504 42.0987 67.5202 40.4153H66.2308ZM66.1968 38.1791C65.8544 36.9251 64.9838 35.884 63.8189 35.265C63.5133 33.7185 63.0539 32.2274 62.4361 30.8151C63.6916 30.9295 64.9621 31.1836 66.2458 31.5843C66.9627 33.6773 67.4013 35.8884 67.5164 38.1791H66.1968ZM47.1859 12.4572C45.2428 8.22457 42.2169 4.84977 40.7813 3.38911C37.6422 6.50005 35.3803 9.55642 33.9985 12.5403C35.7736 12.1369 37.6101 11.8847 39.4938 11.8069V7.3793H41.8519V11.8024C43.677 11.865 45.4597 12.0886 47.1859 12.4572ZM30.3774 16.0082C30.1274 17.2193 30.0133 18.4214 30.0322 19.6146C25.9451 21.6102 22.5778 24.713 20.3338 28.5047C19.034 28.5091 17.7239 28.6558 16.4043 28.9322C19.1812 23.137 24.1831 18.4957 30.3774 16.0082ZM12.5625 32.5539C9.61107 33.8822 6.59649 35.9323 3.53568 38.7087C4.96374 39.9716 8.12925 42.5244 12.1371 44.3599C11.8899 43.0736 11.7362 41.757 11.6843 40.4153H7.01434V38.1791H11.69C11.7777 36.2462 12.0739 34.3643 12.5625 32.5539ZM15.6016 48.0003C16.8438 48.3205 18.1323 48.5459 19.4528 48.6452C21.6449 53.2061 25.3933 56.9279 30.085 59.2008C30.1897 60.4423 30.4387 61.6918 30.8301 62.9503C23.7747 60.2598 18.1955 54.8045 15.6016 48.0003ZM34.9313 66.453C36.3198 68.8681 38.2647 71.327 40.7813 73.8207C42.0113 72.5694 44.4043 69.9074 46.2879 66.5121C44.8438 66.775 43.362 66.9352 41.8509 66.9879V71.3189H39.4928V66.9817C37.9384 66.9182 36.4141 66.7402 34.9313 66.453ZM50.3665 63.0872C50.7579 61.8815 51.0494 60.6265 51.2012 59.3349C56.0372 57.0782 59.8932 53.2982 62.1248 48.6273C63.4492 48.5128 64.7404 48.2731 65.9846 47.9377C63.3558 54.8886 57.6171 60.4414 50.3665 63.0872ZM69.8792 40.4153C69.8292 41.7194 69.6821 43.0003 69.4463 44.2525C73.3437 42.4269 76.4111 39.9475 77.8109 38.7096C74.834 36.0101 71.9015 33.994 69.0284 32.663C69.4991 34.4403 69.7868 36.2847 69.8745 38.1791H74.4407V40.4153H69.8792Z" fill="#DF0E12"/>
      <path id="Shape_2" fill-rule="evenodd" clip-rule="evenodd" d="M65.6825 20.1862C64.4865 20.1862 63.3612 19.7434 62.5151 18.9411C61.6681 18.1388 61.2021 17.0717 61.2021 15.9366C61.2021 14.8015 61.6691 13.7345 62.5151 12.9321C63.3612 12.1298 64.4856 11.6879 65.6825 11.6879H65.6835C66.8795 11.6879 68.0048 12.1298 68.8509 12.9321C70.5977 14.5896 70.5977 17.2846 68.8499 18.9411C68.0048 19.7434 66.8785 20.1862 65.6825 20.1862ZM65.6835 13.925C65.1156 13.925 64.5827 14.1343 64.1818 14.5144C63.7819 14.8937 63.5602 15.399 63.5602 15.9384C63.5602 16.4751 63.781 16.9804 64.1818 17.3606C64.9836 18.1218 66.3815 18.1218 67.1832 17.3606C68.0104 16.5753 68.0114 15.2989 67.1842 14.5144C66.7833 14.1343 66.2504 13.925 65.6835 13.925Z" fill="#DF0E12"/>
      <path id="Shape_3" fill-rule="evenodd" clip-rule="evenodd" d="M15.661 59.1238C16.857 59.1238 17.9823 59.5666 18.8284 60.3689C19.6745 61.1713 20.1404 62.2384 20.1404 63.3725C20.1404 64.5067 19.6745 65.5729 18.8275 66.3761C17.9804 67.1793 16.8551 67.6212 15.6591 67.6212C14.4631 67.6212 13.3378 67.1785 12.4917 66.3761C11.6456 65.5738 11.1797 64.5076 11.1797 63.3725C11.1806 62.2375 11.6466 61.1704 12.4927 60.3689C13.3397 59.5657 14.464 59.1238 15.661 59.1238ZM14.1594 64.7956C14.9602 65.5559 16.3581 65.555 17.1608 64.7956C17.5616 64.4164 17.7823 63.9101 17.7823 63.3725C17.7823 62.8341 17.5616 62.3296 17.1608 61.9494C16.7599 61.5693 16.2269 61.36 15.6601 61.36C15.0932 61.36 14.5602 61.5693 14.1594 61.9494C13.7585 62.3296 13.5378 62.835 13.5378 63.3725C13.5378 63.9101 13.7585 64.4155 14.1594 64.7956Z" fill="#DF0E12"/>
      <path id="Shape_4" fill-rule="evenodd" clip-rule="evenodd" d="M62.5151 60.3689C63.3603 59.5657 64.4846 59.1238 65.6825 59.1238C66.8804 59.1238 68.0048 59.5657 68.8499 60.368C70.5977 62.0255 70.5977 64.7196 68.8499 66.377C68.0048 67.1793 66.8795 67.6212 65.6835 67.6212C64.4874 67.6212 63.3612 67.1785 62.5151 66.3761C61.6681 65.5747 61.2021 64.5085 61.2021 63.3725C61.2021 62.2384 61.6691 61.1713 62.5151 60.3689ZM64.1818 64.7947C64.9845 65.5541 66.3815 65.5568 67.1832 64.7956C68.0104 64.0103 68.0104 62.7348 67.1832 61.9485C66.7823 61.5684 66.2494 61.3591 65.6825 61.3591C65.1156 61.3591 64.5827 61.5684 64.1818 61.9485C63.781 62.3287 63.5602 62.8341 63.5602 63.3716C63.5602 63.9101 63.781 64.4146 64.1818 64.7947Z" fill="#DF0E12"/>
      <path id="Shape_5" fill-rule="evenodd" clip-rule="evenodd" d="M18.8275 18.9402C17.9814 19.7425 16.8571 20.1844 15.6601 20.1844C14.4641 20.1844 13.3388 19.7425 12.4908 18.9393C10.7439 17.2828 10.7439 14.5877 12.4908 12.9312C13.3378 12.1289 14.4622 11.687 15.6592 11.687C16.8561 11.687 17.9814 12.1298 18.8275 12.9321C20.5744 14.5886 20.5744 17.2836 18.8275 18.9402ZM15.6601 13.9232C15.0932 13.9232 14.5603 14.1334 14.1594 14.5135C13.3322 15.2979 13.3322 16.5743 14.1594 17.3588C14.9612 18.1191 16.359 18.1191 17.1608 17.3588C17.5617 16.9786 17.7824 16.4733 17.7824 15.9357C17.7824 15.3981 17.5617 14.8928 17.1608 14.5126C16.7599 14.1325 16.227 13.9232 15.6601 13.9232Z" fill="#DF0E12"/>
      <path id="Shape_6" fill-rule="evenodd" clip-rule="evenodd" d="M55.4949 65.3556C56.1524 65.0139 56.8947 64.8332 57.6417 64.8332C59.282 64.8332 60.7893 65.6811 61.576 67.0443C62.7616 69.0998 61.9627 71.6865 59.7942 72.8109C59.1368 73.1517 58.3954 73.3324 57.6493 73.3324C56.009 73.3324 54.5007 72.4844 53.7141 71.1204C53.1387 70.1257 53.0085 68.9781 53.3453 67.8887C53.6811 66.7992 54.4451 65.8994 55.4949 65.3556ZM55.7817 70.0479C56.3259 70.9907 57.6568 71.3726 58.6623 70.8493C59.6895 70.3162 60.0677 69.0908 59.5056 68.1168C59.133 67.4701 58.418 67.0693 57.6408 67.0693C57.2833 67.0693 56.9418 67.1516 56.6259 67.3171C56.1278 67.5747 55.7656 68.0014 55.6062 68.5175C55.4478 69.0327 55.51 69.5765 55.7817 70.0479Z" fill="#DF0E12"/>
      <path id="Shape_7" fill-rule="evenodd" clip-rule="evenodd" d="M25.8489 13.9536C25.1915 14.2944 24.4492 14.4751 23.7021 14.4751C22.0628 14.4751 20.5555 13.6271 19.7688 12.264C18.5841 10.2085 19.384 7.62172 21.5506 6.49828C22.209 6.15749 22.9513 5.97681 23.6974 5.97681C25.3367 5.97681 26.845 6.82475 27.6307 8.18791C28.2051 9.18345 28.3362 10.3319 27.9995 11.4205C27.6628 12.5091 26.8987 13.4089 25.8489 13.9536ZM23.6965 8.21296C23.339 8.21296 22.9966 8.29614 22.6806 8.45983C21.6553 8.99203 21.2761 10.2174 21.8373 11.1915C22.3806 12.1361 23.7144 12.5135 24.717 11.9921C25.2151 11.7336 25.5773 11.3078 25.7367 10.7917C25.8951 10.2765 25.8338 9.73265 25.5612 9.26037C25.1887 8.61457 24.4746 8.21296 23.6965 8.21296Z" fill="#DF0E12"/>
      <path id="Shape_8" fill-rule="evenodd" clip-rule="evenodd" d="M71.893 51.173C72.6221 51.173 73.3493 51.3465 73.9964 51.6739C75.0528 52.207 75.8263 53.0987 76.1762 54.1846C76.5261 55.2705 76.4082 56.4199 75.8451 57.4217C75.0641 58.8108 73.5483 59.673 71.8873 59.673C71.1582 59.673 70.4319 59.5004 69.7848 59.1739C68.7275 58.6399 67.9531 57.749 67.605 56.6632C67.256 55.5773 67.3739 54.4279 67.937 53.4261C68.7152 52.037 70.2319 51.173 71.893 51.173ZM70.8912 57.1998C71.9043 57.7115 73.2305 57.3188 73.7643 56.3698C74.0303 55.8957 74.085 55.3519 73.9209 54.8376C73.7549 54.3233 73.388 53.9002 72.8871 53.6479C72.5759 53.4905 72.241 53.41 71.892 53.41C71.1054 53.41 70.3876 53.8188 70.0178 54.4771C69.7509 54.9521 69.6943 55.4977 69.8603 56.012C70.0253 56.5254 70.3923 56.9476 70.8912 57.1998Z" fill="#DF0E12"/>
      <path id="Shape_9" fill-rule="evenodd" clip-rule="evenodd" d="M9.45002 28.1334C8.7209 28.1334 7.99366 27.9608 7.3466 27.6343C5.16678 26.5315 4.33768 23.9536 5.4988 21.8865C6.27886 20.4974 7.79464 19.6343 9.45474 19.6343C10.1839 19.6343 10.912 19.8069 11.5591 20.1343C13.7389 21.2354 14.568 23.8132 13.4069 25.8812C12.6268 27.2712 11.1111 28.1334 9.45002 28.1334ZM9.45568 21.8713C8.66902 21.8713 7.95027 22.2801 7.58053 22.9384C7.03062 23.917 7.423 25.1379 8.45679 25.6612C9.467 26.1728 10.7941 25.781 11.3271 24.8311C11.877 23.8517 11.4846 22.6307 10.4517 22.1092C10.1395 21.9509 9.80468 21.8713 9.45568 21.8713Z" fill="#DF0E12"/>
      <path id="Shape_10" fill-rule="evenodd" clip-rule="evenodd" d="M24.1082 65.0425C24.8345 65.0425 25.5598 65.2142 26.205 65.538C27.2623 66.0675 28.0386 66.9575 28.3905 68.0425C28.7423 69.1284 28.6272 70.2787 28.066 71.2813C27.2878 72.6749 25.7692 73.5416 24.1044 73.5416C23.3781 73.5416 22.6537 73.369 22.0085 73.0452C19.8278 71.9477 18.992 69.3708 20.1485 67.301C20.9266 65.9083 22.4433 65.0425 24.1082 65.0425ZM23.114 71.0702C24.1308 71.5819 25.4513 71.1847 25.9833 70.2339C26.2493 69.759 26.304 69.2142 26.1371 68.7008C25.9701 68.1874 25.6022 67.7661 25.1023 67.5157C24.7901 67.3582 24.4562 67.2795 24.1082 67.2795C23.3196 67.2795 22.6009 67.6892 22.2321 68.3484C21.685 69.3296 22.0802 70.5506 23.114 71.0702Z" fill="#DF0E12"/>
      <path id="Shape_11" fill-rule="evenodd" clip-rule="evenodd" d="M57.2336 14.2666C56.5073 14.2666 55.7829 14.0949 55.1377 13.7711C54.0803 13.2398 53.3031 12.3507 52.9522 11.2657C52.6013 10.1807 52.7164 9.03136 53.2767 8.02778C54.0558 6.63421 55.5735 5.76837 57.2383 5.76837C57.9646 5.76837 58.689 5.94011 59.3332 6.2639C61.5168 7.36141 62.3516 9.93745 61.1942 12.0072C60.4161 13.4008 58.8984 14.2666 57.2336 14.2666ZM57.2383 8.00452C56.4488 8.00452 55.7301 8.41508 55.3603 9.07519C55.0953 9.55015 55.0396 10.0949 55.2066 10.6092C55.3735 11.1235 55.7414 11.5448 56.2413 11.7961C57.26 12.306 58.5786 11.9115 59.1106 10.9607C59.6586 9.98039 59.2634 8.75945 58.2287 8.23977C57.9193 8.08323 57.5854 8.00452 57.2383 8.00452Z" fill="#DF0E12"/>
      <path id="Shape_12" fill-rule="evenodd" clip-rule="evenodd" d="M13.6047 53.774C14.181 54.766 14.3168 55.9136 13.9829 57.0039C13.6499 58.0952 12.8878 58.9977 11.8389 59.5442C11.1787 59.8886 10.4326 60.071 9.68175 60.071C8.04618 60.071 6.53983 59.2276 5.75317 57.868C4.56375 55.8161 5.35701 53.2284 7.51985 52.0987C8.18106 51.7535 8.92622 51.571 9.67609 51.571C11.3107 51.571 12.8171 52.4154 13.6047 53.774ZM10.7023 57.5853C11.1994 57.3259 11.5607 56.8984 11.7182 56.3823C11.8757 55.8662 11.8116 55.3232 11.539 54.8528C11.1655 54.207 10.4514 53.8071 9.67609 53.8071C9.31766 53.8071 8.97432 53.8903 8.65739 54.0567C7.6321 54.5925 7.25574 55.8188 7.8198 56.7911C8.3631 57.7293 9.70344 58.1068 10.7023 57.5853Z" fill="#DF0E12"/>
      <path id="Shape_13" fill-rule="evenodd" clip-rule="evenodd" d="M67.7368 25.5351C67.1596 24.5404 67.0256 23.3928 67.3596 22.3034C67.6935 21.2139 68.4547 20.3123 69.5035 19.7649C70.1638 19.4205 70.909 19.239 71.6588 19.239C73.2944 19.239 74.8007 20.0824 75.5884 21.4402C76.7787 23.493 75.9864 26.0807 73.8217 27.2104C73.1614 27.5548 72.4153 27.7372 71.6654 27.7372C70.0308 27.7372 68.5254 26.8937 67.7368 25.5351ZM70.6401 21.7238C70.143 21.9832 69.7818 22.4107 69.6243 22.9268C69.4658 23.4429 69.529 23.9859 69.8016 24.4563C70.3487 25.3982 71.6796 25.7757 72.6851 25.2506C73.7104 24.7157 74.0867 23.4894 73.5217 22.5171C73.1482 21.874 72.4351 21.4742 71.6588 21.4742C71.3051 21.4742 70.9533 21.5601 70.6401 21.7238Z" fill="#DF0E12"/>
    </g>
  </g>
</svg>
