<svg viewBox="0 0 28 28" fill="none" xmlns="http://www.w3.org/2000/svg">
<g id="logo">
<path id="Shape" fill-rule="evenodd" clip-rule="evenodd" d="M0 14C0 6.2692 6.2692 0 14 0C21.7308 0 28 6.2692 28 14C28 21.7308 21.7308 28 14 28C6.2692 28 0 21.7308 0 14ZM20.4014 11.331C20.4014 11.1919 20.3984 11.0535 20.3922 10.9157C21.0197 10.4622 21.565 9.89609 21.9951 9.25159C21.4193 9.50751 20.7998 9.6799 20.1498 9.75766C20.8133 9.35968 21.3226 8.73035 21.5629 7.98032C20.9419 8.34839 20.2545 8.61584 19.5224 8.76025C18.936 8.13562 18.1011 7.7449 17.1768 7.7449C15.4022 7.7449 13.963 9.18408 13.963 10.958C13.963 11.2101 13.9915 11.4553 14.0466 11.6907C11.3759 11.5564 9.00763 10.2776 7.42297 8.33322C7.14697 8.80811 6.98782 9.35968 6.98782 9.94843C6.98782 11.0633 7.55499 12.0475 8.41782 12.6232C7.89059 12.607 7.39542 12.4621 6.9624 12.2214C6.96198 12.2348 6.96198 12.2479 6.96198 12.2624C6.96198 13.8184 8.06961 15.1179 9.53998 15.4123C9.26996 15.486 8.98584 15.5255 8.69254 15.5255C8.48596 15.5255 8.28452 15.505 8.08862 15.4674C8.49792 16.7442 9.68396 17.6732 11.0907 17.6993C9.99072 18.5613 8.60516 19.0748 7.09955 19.0748C6.84042 19.0748 6.5845 19.0601 6.33307 19.0304C7.75516 19.9419 9.44385 20.4738 11.2586 20.4738C17.1693 20.4736 20.4014 15.5772 20.4014 11.331Z" fill="#DD0E12"/>
</g>
</svg>
